<svg xmlns="http://www.w3.org/2000/svg" xmlns:xlink="http://www.w3.org/1999/xlink" width="543" height="184" viewBox="0 0 543 184">
  <defs>
    <filter id="Rectángulo_37499" x="0" y="0" width="543" height="184" filterUnits="userSpaceOnUse">
      <feOffset dy="3" input="SourceAlpha"/>
      <feGaussianBlur stdDeviation="3" result="blur"/>
      <feFlood flood-opacity="0.161"/>
      <feComposite operator="in" in2="blur"/>
      <feComposite in="SourceGraphic"/>
    </filter>
    <clipPath id="clip-path">
      <rect id="Rectángulo_37500" data-name="Rectángulo 37500" width="98.954" height="111.219" fill="none"/>
    </clipPath>
  </defs>
  <g id="Grupo_142206" data-name="Grupo 142206" transform="translate(-529 -2184)">
    <g id="Grupo_142205" data-name="Grupo 142205">
      <g id="Grupo_142204" data-name="Grupo 142204">
        <g transform="matrix(1, 0, 0, 1, 529, 2184)" filter="url(#Rectángulo_37499)">
          <rect id="Rectángulo_37499-2" data-name="Rectángulo 37499" width="525" height="166" rx="28" transform="translate(9 6)" fill="#f9fbfc"/>
        </g>
        <path id="Trazado_146643" data-name="Trazado 146643" d="M7.438,12.656H3.328L2.547,15H.055L4.289,3.625H6.461L10.719,15H8.227Zm-3.477-1.9H6.8L5.375,6.5Zm12.25,1.906a.727.727,0,0,0-.41-.652,4.659,4.659,0,0,0-1.316-.426q-3.016-.633-3.016-2.562A2.323,2.323,0,0,1,12.4,7.145a3.766,3.766,0,0,1,2.441-.754,4.053,4.053,0,0,1,2.574.758,2.388,2.388,0,0,1,.965,1.969H16.125a1.092,1.092,0,0,0-.312-.8A1.322,1.322,0,0,0,14.836,8a1.351,1.351,0,0,0-.883.258.814.814,0,0,0-.312.656A.7.7,0,0,0,14,9.52a3.657,3.657,0,0,0,1.2.4,9.8,9.8,0,0,1,1.422.379,2.336,2.336,0,0,1,1.789,2.273,2.2,2.2,0,0,1-.992,1.871,4.28,4.28,0,0,1-2.562.715,4.47,4.47,0,0,1-1.887-.379,3.166,3.166,0,0,1-1.293-1.039,2.414,2.414,0,0,1-.469-1.426h2.141a1.179,1.179,0,0,0,.445.922,1.766,1.766,0,0,0,1.109.32,1.635,1.635,0,0,0,.98-.246A.766.766,0,0,0,16.211,12.664Zm7.539,2.492a4.15,4.15,0,0,1-3.027-1.141,4.054,4.054,0,0,1-1.168-3.039v-.219a5.106,5.106,0,0,1,.492-2.277,3.612,3.612,0,0,1,1.395-1.547A3.914,3.914,0,0,1,23.5,6.391a3.508,3.508,0,0,1,2.73,1.094,4.444,4.444,0,0,1,1,3.1v.922H21.844a2.1,2.1,0,0,0,.66,1.328,2,2,0,0,0,1.395.5,2.437,2.437,0,0,0,2.039-.945l1.109,1.242a3.389,3.389,0,0,1-1.375,1.121A4.511,4.511,0,0,1,23.75,15.156Zm-.258-6.945a1.411,1.411,0,0,0-1.09.455,2.357,2.357,0,0,0-.535,1.3h3.141V9.788A1.681,1.681,0,0,0,24.6,8.623,1.456,1.456,0,0,0,23.492,8.211Zm4.688,2.5a4.954,4.954,0,0,1,.926-3.133,3,3,0,0,1,2.5-1.187,2.631,2.631,0,0,1,2.164.953l.094-.8h2.047v8.172a3.613,3.613,0,0,1-.5,1.93,3.236,3.236,0,0,1-1.418,1.25,4.985,4.985,0,0,1-2.141.43,4.635,4.635,0,0,1-1.812-.371A3.217,3.217,0,0,1,28.7,17l1-1.375a2.645,2.645,0,0,0,2.047.945,1.936,1.936,0,0,0,1.4-.48,1.8,1.8,0,0,0,.5-1.363v-.453a2.612,2.612,0,0,1-2.055.883,2.992,2.992,0,0,1-2.465-1.191,4.953,4.953,0,0,1-.941-3.16Zm2.258.161a3.1,3.1,0,0,0,.461,1.809,1.465,1.465,0,0,0,1.266.655,1.567,1.567,0,0,0,1.477-.777V8.988a1.563,1.563,0,0,0-1.461-.777,1.474,1.474,0,0,0-1.277.667A3.5,3.5,0,0,0,30.438,10.872ZM42.7,14.141a2.831,2.831,0,0,1-2.312,1.016,2.67,2.67,0,0,1-2.074-.781,3.335,3.335,0,0,1-.73-2.289V6.547h2.258v5.467q0,1.322,1.2,1.322a1.63,1.63,0,0,0,1.578-.8V6.547h2.266V15H42.766Zm8.641-5.477a6.134,6.134,0,0,0-.812-.062,1.654,1.654,0,0,0-1.68.867V15H46.594V6.547h2.133l.063,1.008a2.092,2.092,0,0,1,1.883-1.164,2.366,2.366,0,0,1,.7.1ZM57.094,15a2.507,2.507,0,0,1-.227-.758,2.732,2.732,0,0,1-2.133.914,3,3,0,0,1-2.059-.719,2.312,2.312,0,0,1-.816-1.812,2.389,2.389,0,0,1,1-2.062,4.915,4.915,0,0,1,2.879-.727h1.039V9.352a1.393,1.393,0,0,0-.3-.937,1.183,1.183,0,0,0-.949-.352,1.345,1.345,0,0,0-.895.273.929.929,0,0,0-.324.75H52.047A2.268,2.268,0,0,1,52.5,7.727a3,3,0,0,1,1.281-.98,4.669,4.669,0,0,1,1.859-.355,3.689,3.689,0,0,1,2.48.785,2.747,2.747,0,0,1,.918,2.207v3.664a4.041,4.041,0,0,0,.336,1.82V15Zm-1.867-1.57a1.945,1.945,0,0,0,.922-.223,1.462,1.462,0,0,0,.625-.6V11.156H55.93q-1.7,0-1.8,1.172l-.008.133a.9.9,0,0,0,.3.7A1.153,1.153,0,0,0,55.227,13.43Zm7.625-6.883.07.977a2.951,2.951,0,0,1,2.43-1.133,2.453,2.453,0,0,1,2,.789,3.682,3.682,0,0,1,.672,2.359V15H65.766V9.581a1.47,1.47,0,0,0-.312-1.045,1.4,1.4,0,0,0-1.039-.325,1.553,1.553,0,0,0-1.43.814V15H60.727V6.547Zm6.531,4.164a5.094,5.094,0,0,1,.887-3.148A2.877,2.877,0,0,1,72.7,6.391a2.589,2.589,0,0,1,2.039.922V3H77V15H74.961l-.109-.9a2.657,2.657,0,0,1-2.172,1.055,2.869,2.869,0,0,1-2.395-1.176A5.258,5.258,0,0,1,69.383,10.711Zm2.258.161a3.355,3.355,0,0,0,.414,1.829,1.348,1.348,0,0,0,1.2.636,1.51,1.51,0,0,0,1.477-.887V9.1a1.489,1.489,0,0,0-1.461-.887Q71.641,8.211,71.641,10.872ZM78.4,10.7a5.013,5.013,0,0,1,.484-2.242A3.546,3.546,0,0,1,80.277,6.93a4.069,4.069,0,0,1,2.113-.539,3.849,3.849,0,0,1,2.793,1.047,4.2,4.2,0,0,1,1.207,2.844l.016.578A4.418,4.418,0,0,1,85.32,13.98a4.209,4.209,0,0,1-5.832,0A4.5,4.5,0,0,1,78.4,10.8Zm2.258.16a3.16,3.16,0,0,0,.453,1.843,1.628,1.628,0,0,0,2.578.008,3.457,3.457,0,0,0,.461-2.015,3.128,3.128,0,0,0-.461-1.831,1.5,1.5,0,0,0-1.3-.649,1.474,1.474,0,0,0-1.281.646A3.516,3.516,0,0,0,80.656,10.856Zm16.188,3.285a2.831,2.831,0,0,1-2.312,1.016,2.67,2.67,0,0,1-2.074-.781,3.335,3.335,0,0,1-.73-2.289V6.547h2.258v5.467q0,1.322,1.2,1.322a1.63,1.63,0,0,0,1.578-.8V6.547h2.266V15H96.906Zm5.969-7.594.07.977a2.951,2.951,0,0,1,2.43-1.133,2.453,2.453,0,0,1,2,.789,3.682,3.682,0,0,1,.672,2.359V15h-2.258V9.581a1.47,1.47,0,0,0-.312-1.045,1.4,1.4,0,0,0-1.039-.325,1.553,1.553,0,0,0-1.43.814V15h-2.258V6.547ZM114.594,15a2.507,2.507,0,0,1-.227-.758,2.732,2.732,0,0,1-2.133.914,3,3,0,0,1-2.059-.719,2.312,2.312,0,0,1-.816-1.812,2.389,2.389,0,0,1,1-2.062,4.915,4.915,0,0,1,2.879-.727h1.039V9.352a1.393,1.393,0,0,0-.3-.937,1.183,1.183,0,0,0-.949-.352,1.345,1.345,0,0,0-.895.273.929.929,0,0,0-.324.75h-2.258A2.268,2.268,0,0,1,110,7.727a3,3,0,0,1,1.281-.98,4.669,4.669,0,0,1,1.859-.355,3.689,3.689,0,0,1,2.48.785,2.747,2.747,0,0,1,.918,2.207v3.664a4.041,4.041,0,0,0,.336,1.82V15Zm-1.867-1.57a1.945,1.945,0,0,0,.922-.223,1.462,1.462,0,0,0,.625-.6V11.156h-.844q-1.7,0-1.8,1.172l-.008.133a.9.9,0,0,0,.3.7A1.153,1.153,0,0,0,112.727,13.43Zm9.18-2.734a5.013,5.013,0,0,1,.484-2.242,3.546,3.546,0,0,1,1.395-1.523,4.069,4.069,0,0,1,2.113-.539,3.849,3.849,0,0,1,2.793,1.047,4.2,4.2,0,0,1,1.207,2.844l.016.578a4.418,4.418,0,0,1-1.086,3.121,4.209,4.209,0,0,1-5.832,0,4.5,4.5,0,0,1-1.09-3.187Zm2.258.16a3.16,3.16,0,0,0,.453,1.843,1.628,1.628,0,0,0,2.578.008,3.457,3.457,0,0,0,.461-2.015A3.128,3.128,0,0,0,127.2,8.86a1.5,1.5,0,0,0-1.3-.649,1.474,1.474,0,0,0-1.281.646A3.516,3.516,0,0,0,124.164,10.856Zm14.75,0a5.07,5.07,0,0,1-.887,3.129,2.843,2.843,0,0,1-2.395,1.176,2.633,2.633,0,0,1-2.07-.891V18.25H131.3V6.547H133.4l.078.828a2.654,2.654,0,0,1,2.141-.984,2.862,2.862,0,0,1,2.43,1.156,5.207,5.207,0,0,1,.867,3.188Zm-2.258-.172a3.345,3.345,0,0,0-.418-1.826,1.36,1.36,0,0,0-1.215-.643,1.478,1.478,0,0,0-1.461.815V12.5a1.5,1.5,0,0,0,1.477.839Q136.656,13.336,136.656,10.679Zm6.359-6.211V6.547h1.445V8.2h-1.445v4.219a1.007,1.007,0,0,0,.18.672.9.9,0,0,0,.688.2,3.6,3.6,0,0,0,.664-.055v1.711a4.648,4.648,0,0,1-1.367.2,2.156,2.156,0,0,1-2.422-2.4V8.2h-1.234V6.547h1.234V4.469ZM148.1,15h-2.266V6.547H148.1ZM145.7,4.359a1.112,1.112,0,0,1,.34-.836,1.465,1.465,0,0,1,1.848,0,1.105,1.105,0,0,1,.344.836,1.109,1.109,0,0,1-.348.844,1.448,1.448,0,0,1-1.836,0A1.109,1.109,0,0,1,145.7,4.359Zm6.375,2.188.07.945a2.971,2.971,0,0,1,2.43-1.1A2.255,2.255,0,0,1,156.82,7.68a2.9,2.9,0,0,1,2.539-1.289,2.521,2.521,0,0,1,2.047.8,3.681,3.681,0,0,1,.672,2.41V15h-2.266V9.6a1.616,1.616,0,0,0-.281-1.053,1.245,1.245,0,0,0-.992-.333,1.409,1.409,0,0,0-1.406.971L157.141,15h-2.258V9.6a1.6,1.6,0,0,0-.289-1.065,1.257,1.257,0,0,0-.984-.329,1.463,1.463,0,0,0-1.391.8V15h-2.258V6.547ZM168.711,15a2.507,2.507,0,0,1-.227-.758,2.732,2.732,0,0,1-2.133.914,3,3,0,0,1-2.059-.719,2.312,2.312,0,0,1-.816-1.812,2.389,2.389,0,0,1,1-2.062,4.915,4.915,0,0,1,2.879-.727h1.039V9.352a1.393,1.393,0,0,0-.3-.937,1.183,1.183,0,0,0-.949-.352,1.345,1.345,0,0,0-.895.273.929.929,0,0,0-.324.75h-2.258a2.268,2.268,0,0,1,.453-1.359,3,3,0,0,1,1.281-.98,4.669,4.669,0,0,1,1.859-.355,3.689,3.689,0,0,1,2.48.785,2.747,2.747,0,0,1,.918,2.207v3.664a4.041,4.041,0,0,0,.336,1.82V15Zm-1.867-1.57a1.945,1.945,0,0,0,.922-.223,1.462,1.462,0,0,0,.625-.6V11.156h-.844q-1.7,0-1.8,1.172l-.008.133a.9.9,0,0,0,.3.7A1.153,1.153,0,0,0,166.844,13.43Zm13.047-.094a1.481,1.481,0,0,0,1.016-.344,1.2,1.2,0,0,0,.406-.914h2.117a2.9,2.9,0,0,1-.469,1.574,3.093,3.093,0,0,1-1.262,1.109,3.949,3.949,0,0,1-1.77.395A3.67,3.67,0,0,1,177.07,14a4.56,4.56,0,0,1-1.047-3.184v-.148a4.508,4.508,0,0,1,1.039-3.117,3.627,3.627,0,0,1,2.852-1.164,3.555,3.555,0,0,1,2.543.9,3.2,3.2,0,0,1,.973,2.4h-2.117a1.551,1.551,0,0,0-.406-1.072,1.51,1.51,0,0,0-2.223.163,3.333,3.333,0,0,0-.4,1.866v.235a3.375,3.375,0,0,0,.4,1.878A1.377,1.377,0,0,0,179.891,13.336ZM189.617,15a2.507,2.507,0,0,1-.227-.758,2.732,2.732,0,0,1-2.133.914,3,3,0,0,1-2.059-.719,2.312,2.312,0,0,1-.816-1.812,2.389,2.389,0,0,1,1-2.062,4.915,4.915,0,0,1,2.879-.727H189.3V9.352a1.393,1.393,0,0,0-.3-.937,1.183,1.183,0,0,0-.949-.352,1.345,1.345,0,0,0-.895.273.929.929,0,0,0-.324.75H184.57a2.268,2.268,0,0,1,.453-1.359,3,3,0,0,1,1.281-.98,4.669,4.669,0,0,1,1.859-.355,3.689,3.689,0,0,1,2.48.785,2.747,2.747,0,0,1,.918,2.207v3.664a4.041,4.041,0,0,0,.336,1.82V15Zm-1.867-1.57a1.945,1.945,0,0,0,.922-.223,1.462,1.462,0,0,0,.625-.6V11.156h-.844q-1.7,0-1.8,1.172l-.008.133a.9.9,0,0,0,.3.7A1.153,1.153,0,0,0,187.75,13.43ZM195.68,15h-2.266V3h2.266Zm4.242,0h-2.266V6.547h2.266Zm-2.4-10.641a1.112,1.112,0,0,1,.34-.836,1.465,1.465,0,0,1,1.848,0,1.105,1.105,0,0,1,.344.836,1.109,1.109,0,0,1-.348.844,1.448,1.448,0,0,1-1.836,0A1.109,1.109,0,0,1,197.523,4.359Zm3.906,6.352a5.094,5.094,0,0,1,.887-3.148,2.877,2.877,0,0,1,2.426-1.172,2.589,2.589,0,0,1,2.039.922V3h2.266V15h-2.039l-.109-.9a2.657,2.657,0,0,1-2.172,1.055,2.869,2.869,0,0,1-2.395-1.176A5.258,5.258,0,0,1,201.43,10.711Zm2.258.161A3.355,3.355,0,0,0,204.1,12.7a1.348,1.348,0,0,0,1.2.636,1.51,1.51,0,0,0,1.477-.887V9.1a1.489,1.489,0,0,0-1.461-.887Q203.687,8.211,203.688,10.872ZM215.7,15a2.507,2.507,0,0,1-.227-.758,2.732,2.732,0,0,1-2.133.914,3,3,0,0,1-2.059-.719,2.312,2.312,0,0,1-.816-1.812,2.389,2.389,0,0,1,1-2.062,4.915,4.915,0,0,1,2.879-.727h1.039V9.352a1.393,1.393,0,0,0-.3-.937,1.183,1.183,0,0,0-.949-.352,1.345,1.345,0,0,0-.895.273.929.929,0,0,0-.324.75h-2.258a2.268,2.268,0,0,1,.453-1.359,3,3,0,0,1,1.281-.98,4.669,4.669,0,0,1,1.859-.355,3.689,3.689,0,0,1,2.48.785,2.747,2.747,0,0,1,.918,2.207v3.664a4.041,4.041,0,0,0,.336,1.82V15Zm-1.867-1.57a1.945,1.945,0,0,0,.922-.223,1.462,1.462,0,0,0,.625-.6V11.156h-.844q-1.7,0-1.8,1.172l-.008.133a.9.9,0,0,0,.3.7A1.153,1.153,0,0,0,213.828,13.43Zm5.2-2.719a5.094,5.094,0,0,1,.887-3.148,2.877,2.877,0,0,1,2.426-1.172,2.589,2.589,0,0,1,2.039.922V3h2.266V15H224.6l-.109-.9a2.657,2.657,0,0,1-2.172,1.055,2.869,2.869,0,0,1-2.395-1.176A5.258,5.258,0,0,1,219.023,10.711Zm2.258.161A3.355,3.355,0,0,0,221.7,12.7a1.348,1.348,0,0,0,1.2.636,1.51,1.51,0,0,0,1.477-.887V9.1a1.489,1.489,0,0,0-1.461-.887Q221.281,8.211,221.281,10.872ZM.516,34.711A5.094,5.094,0,0,1,1.4,31.563a2.877,2.877,0,0,1,2.426-1.172,2.589,2.589,0,0,1,2.039.922V27H8.133V39H6.094l-.109-.9a2.657,2.657,0,0,1-2.172,1.055A2.869,2.869,0,0,1,1.418,37.98,5.258,5.258,0,0,1,.516,34.711Zm2.258.161A3.355,3.355,0,0,0,3.188,36.7a1.348,1.348,0,0,0,1.2.636,1.51,1.51,0,0,0,1.477-.887V33.1a1.489,1.489,0,0,0-1.461-.887Q2.773,32.211,2.773,34.872Zm11,4.285a4.15,4.15,0,0,1-3.027-1.141,4.054,4.054,0,0,1-1.168-3.039v-.219a5.106,5.106,0,0,1,.492-2.277,3.612,3.612,0,0,1,1.395-1.547,3.914,3.914,0,0,1,2.059-.543,3.508,3.508,0,0,1,2.73,1.094,4.444,4.444,0,0,1,1,3.1v.922H11.867a2.1,2.1,0,0,0,.66,1.328,2,2,0,0,0,1.395.5,2.437,2.437,0,0,0,2.039-.945l1.109,1.242A3.389,3.389,0,0,1,15.7,38.754,4.511,4.511,0,0,1,13.773,39.156Zm-.258-6.945a1.411,1.411,0,0,0-1.09.455,2.357,2.357,0,0,0-.535,1.3h3.141v-.181a1.681,1.681,0,0,0-.406-1.165A1.456,1.456,0,0,0,13.516,32.211ZM20.914,39H18.648V27h2.266Zm13.453-4.148a5.07,5.07,0,0,1-.887,3.129,2.843,2.843,0,0,1-2.395,1.176,2.633,2.633,0,0,1-2.07-.891V42.25H26.758v-11.7h2.094l.078.828a2.654,2.654,0,0,1,2.141-.984,2.862,2.862,0,0,1,2.43,1.156,5.207,5.207,0,0,1,.867,3.188Zm-2.258-.172a3.345,3.345,0,0,0-.418-1.826,1.36,1.36,0,0,0-1.215-.643,1.478,1.478,0,0,0-1.461.815V36.5a1.5,1.5,0,0,0,1.477.839Q32.109,37.336,32.109,34.679Zm8.406-2.015A6.134,6.134,0,0,0,39.7,32.6a1.654,1.654,0,0,0-1.68.867V39H35.766V30.547H37.9l.063,1.008a2.092,2.092,0,0,1,1.883-1.164,2.366,2.366,0,0,1,.7.1Zm.453,2.031a5.013,5.013,0,0,1,.484-2.242,3.546,3.546,0,0,1,1.395-1.523,4.069,4.069,0,0,1,2.113-.539,3.849,3.849,0,0,1,2.793,1.047,4.2,4.2,0,0,1,1.207,2.844l.016.578a4.418,4.418,0,0,1-1.086,3.121,4.209,4.209,0,0,1-5.832,0,4.5,4.5,0,0,1-1.09-3.187Zm2.258.16A3.16,3.16,0,0,0,43.68,36.7a1.628,1.628,0,0,0,2.578.008,3.457,3.457,0,0,0,.461-2.015,3.128,3.128,0,0,0-.461-1.831,1.5,1.5,0,0,0-1.3-.649,1.474,1.474,0,0,0-1.281.646A3.516,3.516,0,0,0,43.227,34.856Zm6.789-.145a5.094,5.094,0,0,1,.887-3.148,2.877,2.877,0,0,1,2.426-1.172,2.589,2.589,0,0,1,2.039.922V27h2.266V39H55.594l-.109-.9a2.657,2.657,0,0,1-2.172,1.055,2.869,2.869,0,0,1-2.395-1.176A5.258,5.258,0,0,1,50.016,34.711Zm2.258.161a3.355,3.355,0,0,0,.414,1.829,1.348,1.348,0,0,0,1.2.636,1.51,1.51,0,0,0,1.477-.887V33.1a1.489,1.489,0,0,0-1.461-.887Q52.273,32.211,52.273,34.872Zm12.172,3.269a2.831,2.831,0,0,1-2.312,1.016,2.67,2.67,0,0,1-2.074-.781,3.335,3.335,0,0,1-.73-2.289V30.547h2.258v5.467q0,1.322,1.2,1.322a1.63,1.63,0,0,0,1.578-.8V30.547h2.266V39H64.508Zm7.406-.8a1.481,1.481,0,0,0,1.016-.344,1.2,1.2,0,0,0,.406-.914h2.117a2.9,2.9,0,0,1-.469,1.574,3.093,3.093,0,0,1-1.262,1.109,3.949,3.949,0,0,1-1.77.395A3.67,3.67,0,0,1,69.031,38a4.56,4.56,0,0,1-1.047-3.184v-.148a4.508,4.508,0,0,1,1.039-3.117,3.627,3.627,0,0,1,2.852-1.164,3.555,3.555,0,0,1,2.543.9,3.2,3.2,0,0,1,.973,2.4H73.273a1.551,1.551,0,0,0-.406-1.072,1.51,1.51,0,0,0-2.223.163,3.333,3.333,0,0,0-.4,1.866v.235a3.375,3.375,0,0,0,.4,1.878A1.377,1.377,0,0,0,71.852,37.336Zm7.531-8.867v2.078h1.445V32.2H79.383v4.219a1.007,1.007,0,0,0,.18.672.9.9,0,0,0,.688.2,3.6,3.6,0,0,0,.664-.055v1.711a4.648,4.648,0,0,1-1.367.2,2.156,2.156,0,0,1-2.422-2.4V32.2H75.891V30.547h1.234V28.469ZM81.5,34.7a5.013,5.013,0,0,1,.484-2.242,3.546,3.546,0,0,1,1.395-1.523,4.069,4.069,0,0,1,2.113-.539,3.849,3.849,0,0,1,2.793,1.047,4.2,4.2,0,0,1,1.207,2.844l.016.578a4.418,4.418,0,0,1-1.086,3.121,4.209,4.209,0,0,1-5.832,0A4.5,4.5,0,0,1,81.5,34.8Zm2.258.16a3.16,3.16,0,0,0,.453,1.843,1.628,1.628,0,0,0,2.578.008,3.457,3.457,0,0,0,.461-2.015,3.128,3.128,0,0,0-.461-1.831,1.5,1.5,0,0,0-1.3-.649,1.474,1.474,0,0,0-1.281.646A3.516,3.516,0,0,0,83.758,34.856ZM95.43,39V32.2H94.172V30.547H95.43v-.391a3.17,3.17,0,0,1,.98-2.457,3.945,3.945,0,0,1,2.723-.863,9.031,9.031,0,0,1,2.563.461l-.328,1.867a10,10,0,0,0-1.187-.293,5.835,5.835,0,0,0-.906-.066q-1.578,0-1.578,1.4v.344h1.664V32.2H97.7V39Zm7.32,0h-2.266V30.547h2.266Zm3.945-8.453.07.977a2.951,2.951,0,0,1,2.43-1.133,2.453,2.453,0,0,1,2,.789,3.682,3.682,0,0,1,.672,2.359V39h-2.258V33.581a1.47,1.47,0,0,0-.312-1.045,1.4,1.4,0,0,0-1.039-.325,1.553,1.553,0,0,0-1.43.814V39H104.57V30.547ZM118.477,39a2.507,2.507,0,0,1-.227-.758,2.732,2.732,0,0,1-2.133.914,3,3,0,0,1-2.059-.719,2.312,2.312,0,0,1-.816-1.812,2.389,2.389,0,0,1,1-2.062,4.915,4.915,0,0,1,2.879-.727h1.039v-.484a1.393,1.393,0,0,0-.3-.937,1.183,1.183,0,0,0-.949-.352,1.345,1.345,0,0,0-.895.273.929.929,0,0,0-.324.75H113.43a2.268,2.268,0,0,1,.453-1.359,3,3,0,0,1,1.281-.98,4.669,4.669,0,0,1,1.859-.355,3.689,3.689,0,0,1,2.48.785,2.747,2.747,0,0,1,.918,2.207v3.664a4.041,4.041,0,0,0,.336,1.82V39Zm-1.867-1.57a1.945,1.945,0,0,0,.922-.223,1.462,1.462,0,0,0,.625-.6V35.156h-.844q-1.7,0-1.8,1.172l-.008.133a.9.9,0,0,0,.3.7A1.153,1.153,0,0,0,116.609,37.43Zm7.93,1.57h-2.266V27h2.266Zm1.977-1.109a1.137,1.137,0,0,1,.363-.875,1.412,1.412,0,0,1,1.828,0,1.137,1.137,0,0,1,.363.875,1.121,1.121,0,0,1-.359.863,1.435,1.435,0,0,1-1.836,0A1.121,1.121,0,0,1,126.516,37.891Z" transform="translate(737 2246)" fill="#12263f"/>
        <g id="Grupo_142199" data-name="Grupo 142199" transform="translate(586.046 2211.795)">
          <g id="Grupo_142198" data-name="Grupo 142198" transform="translate(0 0)" clip-path="url(#clip-path)">
            <path id="Trazado_146502" data-name="Trazado 146502" d="M20.253,67.288A6.058,6.058,0,0,0,18.278,66.1c-4.429-2.462-5.186-4.695-3.061-9.269.919-1.977,1.9-3.925,2.851-5.887a7.188,7.188,0,0,0,0-6.617q-1.658-3.383-3.3-6.774a8.486,8.486,0,0,1-.427-1.141c-.867-2.75-.3-4.468,2.031-6.186A30.007,30.007,0,0,1,20.6,27.8a42.842,42.842,0,0,0,3.974-2.2,6.961,6.961,0,0,0,3.016-4.217c.619-2.329.761-4.737,1.27-7.081.133-.612.259-1.228.43-1.83.922-3.259,2.611-4.446,6.429-4.158,2.2.166,4.4.536,6.581.9A8.052,8.052,0,0,0,49.9,6.9q2.4-2.462,4.937-4.79c3-2.746,5.082-2.793,8.232-.285,1.945,1.549,3.586,3.419,5.375,5.131,2.257,2.159,4.871,2.58,7.795,2.093,2.111-.352,4.221-.772,6.349-.951,4.081-.343,5.728,1.044,6.65,5.019.558,2.406.9,4.862,1.358,7.291a7.288,7.288,0,0,0,3.654,5.16c1.885,1.107,3.883,1.986,5.8,3.033a16.368,16.368,0,0,1,2.671,1.778,4.582,4.582,0,0,1,1.565,5.163,26.149,26.149,0,0,1-1.852,4.382c-.665,1.361-1.328,2.723-1.972,4.095a6.981,6.981,0,0,0-.057,6.211c1.09,2.3,2.229,4.584,3.337,6.88a9.338,9.338,0,0,1,.445,1.133c.983,2.973.355,4.863-2.269,6.571-1.144.744-2.368,1.366-3.556,2.043a1.781,1.781,0,0,1-1,.824c-.938.443-1.824.977-2.714,1.507A7.147,7.147,0,0,0,91.2,73.875c-.534,2.235-.7,4.529-1.173,6.772-.137.652-.28,1.3-.463,1.94-.893,3.122-2.835,4.519-6.686,4.252-2.287-.158-4.537-.629-6.8-.954a7.8,7.8,0,0,0-7.257,2.37,56.15,56.15,0,0,1-4.674,4.565c-.348-.234-.526.061-.749.234-3.05,2.368-4.819,2.366-7.808,0-.289-.228-.6-.428-.9-.641-1.084-.475-1.654-1.536-2.549-2.229-.725-.682-1.452-1.364-2.163-2.057-2.193-2.138-4.782-2.524-7.674-2.026-2.323.4-4.648.811-7,1.027-3.443-.076-5.055-1.272-6.045-4.561a43.925,43.925,0,0,1-1.085-5.645,23.855,23.855,0,0,0-1.215-4.7,7.2,7.2,0,0,0-2.979-2.854c-1.132-.682-2.3-1.3-3.5-1.866a2.484,2.484,0,0,1-.229-.217" transform="translate(-9.824 0)" fill="#52c6fe"/>
            <path id="Trazado_146503" data-name="Trazado 146503" d="M10.43,227.151a1.128,1.128,0,0,1,.174.034,13.5,13.5,0,0,0,5.021,3.736c.564.279,1.109.586,1.645.914,1.015,1.85,1.182,3.922,1.555,5.94.261,1.411.439,2.843.8,4.227.907,3.455,2.323,4.549,5.863,4.7a3.181,3.181,0,0,1,.829,1.411,4.312,4.312,0,0,0,4.26,2.734c2.941.078,5.769-.674,8.651-1.02a6.648,6.648,0,0,1,3.371.2,17.642,17.642,0,0,1,2.262,2.255c-1.36,4.637-2.667,9.291-4.1,13.906-1,3.228-3.32,5.014-6.084,4.886a10.374,10.374,0,0,1-4.507-1.406c-2.528-1.379-5.089-2.7-7.589-4.126a2.361,2.361,0,0,0-2.27-.128c-4.221,1.663-8.46,3.284-12.7,4.906a10.937,10.937,0,0,1-3.894.764c-2.672.006-4.029-1.557-3.667-4.205A59.623,59.623,0,0,1,1.8,259.786Q6,243.839,10.278,227.91c.066-.249.1-.506.152-.759" transform="translate(0 -159.864)" fill="#0060fe"/>
            <path id="Trazado_146504" data-name="Trazado 146504" d="M223.726,248.867q3.534,13.326,7.061,26.654a56.6,56.6,0,0,1,1.56,6.34c.4,2.777-.967,4.335-3.778,4.3a14.463,14.463,0,0,1-5.038-1.2c-3.888-1.509-7.777-3.016-11.653-4.556a1.848,1.848,0,0,0-1.759.12c-2.549,1.418-5.13,2.779-7.7,4.156-.488.261-.977.526-1.486.741-4.286,1.8-7.736.287-9.2-4.126-.779-2.342-1.4-4.736-2.093-7.106a10.046,10.046,0,0,0,4.443-2.817,43.569,43.569,0,0,0,3.367-3.381c2.44-2.865,5.568-3.4,9.054-2.885a45.338,45.338,0,0,0,7.491.8,4.253,4.253,0,0,0,4.205-2.839,25.173,25.173,0,0,0,1.31-5.944,30.653,30.653,0,0,1,1-4.773,6.994,6.994,0,0,1,2.219-3.126,1.056,1.056,0,0,1,1-.35" transform="translate(-133.461 -175.125)" fill="#0060fe"/>
            <path id="Trazado_146505" data-name="Trazado 146505" d="M219.324,232.593c-2.161,1.252-3.048,3.278-3.488,5.615-.462,2.449-.632,4.949-1.308,7.361-.745,2.659-1.973,4.492-5.562,4.373a59.586,59.586,0,0,1-6.776-.786c-3.341-.5-6.336-.143-8.772,2.579a33.935,33.935,0,0,1-5.1,4.9c-.9.66-1.713,1.69-3.085,1.277l-1.853-6.238c.047-.175.038-.411.15-.514,1.851-1.7,3.494-3.613,5.41-5.25,1.884-1.608,4.075-1.762,6.374-1.469,2.048.261,4.086.592,6.135.836,4.739.565,6.782-1.027,7.515-5.757.345-2.221.73-4.437,1.13-6.649a7.2,7.2,0,0,1,3.883-5.235c1.2-.651,2.414-1.281,3.621-1.921.542,2.3,1.336,4.54,1.726,6.88" transform="translate(-129.059 -158.852)" fill="#0043df"/>
            <path id="Trazado_146506" data-name="Trazado 146506" d="M128.611,93.849c.363,14.815-12.213,27.91-27.851,27.868a27.88,27.88,0,0,1,.136-55.759C116.42,65.98,128.98,79,128.611,93.849" transform="translate(-51.355 -46.42)" fill="#009efe"/>
            <path id="Trazado_146507" data-name="Trazado 146507" d="M103.161,293.495c-3.829-.273-7.492,1.06-11.294,1.142-3.41.073-4.844-1.083-5.817-4.469,2.7-.377,5.4-.711,8.086-1.142a7.548,7.548,0,0,1,6.669,2.144,26.942,26.942,0,0,1,2.356,2.326" transform="translate(-60.559 -203.333)" fill="#0043df"/>
            <path id="Trazado_146508" data-name="Trazado 146508" d="M42.46,231.916c-2.585-1.03-5.236-1.964-6.665-4.65,2.532,1.1,5.144,2.1,6.665,4.65" transform="translate(-25.192 -159.945)" fill="#0144e0"/>
            <path id="Trazado_146509" data-name="Trazado 146509" d="M280.1,158.719c.125-.342-.221-.962.458-.925s.439.653.447,1.047.162,1.05-.525.966c-.643-.078-.239-.725-.38-1.089" transform="translate(-197.131 -111.051)" fill="#dce9fa"/>
            <path id="Trazado_146510" data-name="Trazado 146510" d="M84.608,77.113c-.344-.036-.646-.206-.574-.458a2,2,0,0,1,1.1-1.156c.227-.116.539.255.5.451-.111.579-.639.844-1.028,1.162" transform="translate(-59.134 -53.119)" fill="#d9e9fa"/>
            <path id="Trazado_146511" data-name="Trazado 146511" d="M233.477,250.84a.418.418,0,0,1-.46-.5c.122-.547.616-.8,1.071-1a.426.426,0,0,1,.563.458c-.19.528-.734.753-1.174,1.04" transform="translate(-163.985 -175.458)" fill="#dae9fa"/>
            <path id="Trazado_146512" data-name="Trazado 146512" d="M93.841,247.5c.4.3.925.527,1.174,1.014.094.184-.193.628-.376.565a2.091,2.091,0,0,1-1.311-1.029c-.091-.2.213-.421.513-.549" transform="translate(-65.671 -174.188)" fill="#dae9fa"/>
            <path id="Trazado_146513" data-name="Trazado 146513" d="M150.706,45.548c-.4.017-.812.031-.755-.439.1-.783.82-.328,1.225-.528.285-.141.511-.014.507.329-.009.741-.608.56-.977.639" transform="translate(-105.529 -31.335)" fill="#d9e9fa"/>
            <path id="Trazado_146514" data-name="Trazado 146514" d="M180.751,44.958c.376.08.94-.121.914.6-.018.485-.354.395-.62.316-.4-.117-1.074.27-1.12-.492-.034-.568.472-.406.826-.428" transform="translate(-126.626 -31.637)" fill="#dae9fa"/>
            <path id="Trazado_146515" data-name="Trazado 146515" d="M278.789,174.459c.115-.249-.069-.845.5-.936a.431.431,0,0,1,.475.642c-.209.37.236,1.084-.527,1.122-.409.021-.542-.311-.444-.828" transform="translate(-196.184 -122.117)" fill="#d9e9fa"/>
            <path id="Trazado_146516" data-name="Trazado 146516" d="M195.2,47.591c.442.2,1.1.028,1.269.649a.388.388,0,0,1-.529.478c-.424-.18-1.124.031-1.2-.715-.028-.292.1-.5.456-.411" transform="translate(-137.054 -33.478)" fill="#dae9fa"/>
            <path id="Trazado_146517" data-name="Trazado 146517" d="M209.5,52.513c.278.276,1,.088,1.071.768.019.193-.152.625-.468.434-.427-.259-1.192-.086-1.244-.834-.018-.264.221-.458.641-.368" transform="translate(-146.991 -36.941)" fill="#dbe9fa"/>
            <path id="Trazado_146518" data-name="Trazado 146518" d="M275.617,189.1c.087-.165-.1-.814.6-.841.392-.015.534.266.359.592-.213.4.065,1.158-.742,1.125-.4-.017-.425-.328-.212-.875" transform="translate(-193.879 -132.492)" fill="#dce9fa"/>
            <path id="Trazado_146519" data-name="Trazado 146519" d="M235.855,68.692c-.35-.4-.99-.507-1.129-1.085-.053-.22.277-.582.462-.49.465.231,1.043.435,1.175,1.022.054.24-.236.418-.508.552" transform="translate(-165.191 -47.225)" fill="#dce9fa"/>
            <path id="Trazado_146520" data-name="Trazado 146520" d="M246.435,76.774a2.847,2.847,0,0,1,1.108,1.127c.1.213-.246.539-.448.5a1.637,1.637,0,0,1-1.124-1.062c-.1-.235.224-.412.464-.563" transform="translate(-173.095 -54.032)" fill="#ddeafa"/>
            <path id="Trazado_146521" data-name="Trazado 146521" d="M256.953,89.8c-.576-.172-.8-.709-1.034-1.174-.131-.257.262-.541.43-.5.567.146.8.69,1.039,1.16.165.326-.181.4-.435.511" transform="translate(-180.091 -62.018)" fill="#dce9fa"/>
            <path id="Trazado_146522" data-name="Trazado 146522" d="M108.3,59.369c-.379-.036-.547-.291-.495-.53.13-.593.737-.667,1.179-.877.325-.154.51.253.482.44-.1.658-.841.589-1.166.967" transform="translate(-75.867 -40.768)" fill="#dce9fa"/>
            <path id="Trazado_146523" data-name="Trazado 146523" d="M60.525,112.883c-.223.315-.131.97-.738,1.116-.171.041-.637-.127-.486-.435.223-.456.121-1.172.805-1.3.233-.043.491.17.419.617" transform="translate(-41.714 -79.007)" fill="#dce9fa"/>
            <path id="Trazado_146524" data-name="Trazado 146524" d="M244.9,241.036c-.259-.129-.562-.317-.477-.548a1.669,1.669,0,0,1,1.121-1.072c.191-.051.55.287.459.491a2.825,2.825,0,0,1-1.1,1.129" transform="translate(-172.009 -168.492)" fill="#ddeafa"/>
            <path id="Trazado_146525" data-name="Trazado 146525" d="M55.182,126.207c.248.154.663.054.573.438-.116.494,0,1.149-.606,1.377-.194.072-.661-.111-.515-.5.162-.433.028-1.028.548-1.31" transform="translate(-38.431 -88.822)" fill="#d9e9fa"/>
            <path id="Trazado_146526" data-name="Trazado 146526" d="M83.066,237.354c.318.393.919.6.971,1.209.018.213-.3.529-.552.386a1.707,1.707,0,0,1-.992-1.1c-.039-.22.235-.432.572-.492" transform="translate(-58.054 -167.044)" fill="#dce9fa"/>
            <path id="Trazado_146527" data-name="Trazado 146527" d="M52.668,141.769c-.209.3.087.988-.65,1-.422.008-.5-.338-.363-.606.191-.377-.138-1.055.568-1.127.481-.049.479.328.444.73" transform="translate(-36.31 -99.257)" fill="#dceafa"/>
            <path id="Trazado_146528" data-name="Trazado 146528" d="M279.99,143.93c.035.458-.03.866-.462.8-.749-.115-.326-.837-.515-1.258s.231-.546.488-.5c.6.1.414.661.488.96" transform="translate(-196.329 -100.612)" fill="#d6e8fa"/>
            <path id="Trazado_146529" data-name="Trazado 146529" d="M65.328,213.241a2.649,2.649,0,0,1,.806,1.315c.08.3-.3.527-.476.463-.547-.2-.725-.773-.9-1.263-.1-.283.275-.357.572-.515" transform="translate(-45.562 -150.074)" fill="#dce9fa"/>
            <path id="Trazado_146530" data-name="Trazado 146530" d="M121.613,53a.423.423,0,0,1-.475-.491c.164-.653.83-.568,1.3-.717.294-.092.509.277.427.489-.213.547-.834.5-1.256.719" transform="translate(-85.248 -36.441)" fill="#ddeafa"/>
            <path id="Trazado_146531" data-name="Trazado 146531" d="M95.2,67.03c.348-.4.672-.871,1.251-.94a.394.394,0,0,1,.4.518,1.887,1.887,0,0,1-1.155.938c-.279.1-.387-.254-.5-.516" transform="translate(-67.001 -46.511)" fill="#ddeafa"/>
            <path id="Trazado_146532" data-name="Trazado 146532" d="M50.818,156.812c.046-.358-.108-.853.493-.79.649.068.365.612.392.959.025.331.128.827-.473.766-.657-.066-.3-.623-.411-.935" transform="translate(-35.765 -109.801)" fill="#e2ebfa"/>
            <path id="Trazado_146533" data-name="Trazado 146533" d="M52.461,172.051c.1.4.056.693-.36.68-.689-.023-.518-.6-.56-1-.032-.309-.129-.752.4-.732.813.033.329.754.524,1.052" transform="translate(-36.254 -120.345)" fill="#dae9fa"/>
            <path id="Trazado_146534" data-name="Trazado 146534" d="M59.76,201.024c.031.423-.265.6-.478.547-.616-.149-.561-.792-.737-1.241-.167-.427.32-.574.505-.5.541.2.451.855.71,1.2" transform="translate(-41.178 -140.621)" fill="#dbe9fa"/>
            <path id="Trazado_146535" data-name="Trazado 146535" d="M270.8,204.2c-.268-.13-.657-.128-.574-.455.129-.5.155-1.131.808-1.3.207-.053.528.127.457.342a2.511,2.511,0,0,1-.691,1.412" transform="translate(-190.174 -142.469)" fill="#ddeafa"/>
            <path id="Trazado_146536" data-name="Trazado 146536" d="M254.979,229.9c-.281-.116-.622-.323-.507-.526.257-.451.492-1.011,1.084-1.125.174-.033.495.261.421.428a2.212,2.212,0,0,1-1,1.223" transform="translate(-179.076 -160.638)" fill="#ddeafa"/>
            <path id="Trazado_146537" data-name="Trazado 146537" d="M120.271,264.614c-.376-.255-1.006-.195-1.18-.766-.069-.225.128-.6.411-.495.472.168,1.125.154,1.289.779.061.234-.168.46-.519.481" transform="translate(-83.803 -185.33)" fill="#ddeafa"/>
            <path id="Trazado_146538" data-name="Trazado 146538" d="M208.6,264.8c-.277.65-.913.6-1.375.807-.254.115-.419-.16-.4-.377.068-.741.762-.663,1.228-.855.374-.154.323.292.547.424" transform="translate(-145.556 -186.038)" fill="#ddeafa"/>
            <path id="Trazado_146539" data-name="Trazado 146539" d="M135.02,269.109c-.1.245-.11.6-.462.507-.48-.125-1.152.011-1.277-.714-.05-.29.166-.535.466-.4.425.192,1.055,0,1.274.607" transform="translate(-93.795 -188.939)" fill="#ddeafa"/>
            <path id="Trazado_146540" data-name="Trazado 146540" d="M193.2,270.286c-.432.057-.721-.04-.668-.432.091-.677.754-.427,1.145-.608a.4.4,0,0,1,.571.449c-.094.656-.759.391-1.047.591" transform="translate(-135.493 -189.459)" fill="#dfeafa"/>
            <path id="Trazado_146541" data-name="Trazado 146541" d="M148.527,271.928c.265.113.919-.219.9.514-.018.587-.525.386-.85.371-.377-.017-.9.058-.87-.561.021-.5.4-.424.825-.324" transform="translate(-103.949 -191.325)" fill="#d9e9fa"/>
            <path id="Trazado_146542" data-name="Trazado 146542" d="M178.625,272.181c.394-.005.806-.074.762.438-.066.762-.76.353-1.141.54a.386.386,0,0,1-.584-.411c.062-.627.633-.466.962-.566" transform="translate(-125.033 -191.551)" fill="#dbe9fa"/>
            <path id="Trazado_146543" data-name="Trazado 146543" d="M163.531,273.861c-.4-.062-.893.094-.863-.484.033-.648.576-.409.927-.425.334-.015.82-.124.8.453-.027.667-.6.318-.861.456" transform="translate(-114.481 -192.076)" fill="#d7e8fa"/>
            <path id="Trazado_146544" data-name="Trazado 146544" d="M137.252,47.79c-.205.51-.779.358-1.178.52-.323.132-.623-.045-.565-.426.1-.64.711-.505,1.127-.629.345-.1.539.132.616.534" transform="translate(-95.363 -33.241)" fill="#ddeafa"/>
            <path id="Trazado_146545" data-name="Trazado 146545" d="M224.009,59.739c-.149.279-.283.626-.555.509-.445-.191-1.008-.318-1.191-.839-.069-.2.143-.6.419-.525a2.692,2.692,0,0,1,1.327.855" transform="translate(-156.414 -41.434)" fill="#deeafa"/>
            <path id="Trazado_146546" data-name="Trazado 146546" d="M165.89,44.992c-.364-.052-.887.106-.915-.483s.48-.427.8-.414c.347.015.887-.21.912.433.022.572-.459.419-.8.465" transform="translate(-116.105 -31.012)" fill="#d7e8fa"/>
            <path id="Trazado_146547" data-name="Trazado 146547" d="M222.031,258.358a2.079,2.079,0,0,1-1.236.791c-.294.108-.525-.22-.469-.455.139-.581.726-.665,1.187-.822.276-.094.443.179.518.486" transform="translate(-155.054 -181.471)" fill="#dfeafa"/>
            <path id="Trazado_146548" data-name="Trazado 146548" d="M55.07,186.835c.185.5-.127.65-.345.623-.788-.1-.483-.857-.689-1.305-.167-.365.262-.451.461-.417.706.122.411.81.572,1.1" transform="translate(-38.003 -130.711)" fill="#deeafa"/>
            <path id="Trazado_146549" data-name="Trazado 146549" d="M276.664,130.056c-.616-.212-.506-.831-.671-1.272a.363.363,0,0,1,.426-.486c.72.105.5.789.669,1.226.136.347-.134.439-.424.533" transform="translate(-194.218 -90.289)" fill="#deeafa"/>
            <path id="Trazado_146550" data-name="Trazado 146550" d="M265.815,101.744c0,.408-.206.644-.461.584-.571-.134-.7-.695-.852-1.163a.39.39,0,0,1,.441-.487c.583.128.544.8.872,1.066" transform="translate(-186.138 -70.85)" fill="#dfeafa"/>
            <path id="Trazado_146551" data-name="Trazado 146551" d="M67.371,99.462c-.359.415-.339,1.117-1,1.2-.2.024-.565-.17-.392-.495.227-.425.286-1.031.882-1.144.249-.047.453.153.512.443" transform="translate(-46.401 -69.682)" fill="#dfeafa"/>
            <path id="Trazado_146552" data-name="Trazado 146552" d="M75.142,86.462c.3.153.624.328.52.563-.208.472-.442,1.011-1.042,1.111-.182.03-.478-.188-.4-.416a3.07,3.07,0,0,1,.918-1.258" transform="translate(-52.227 -60.85)" fill="#dfeafa"/>
            <path id="Trazado_146553" data-name="Trazado 146553" d="M106.258,256.347c.364.318,1.034.325,1.129.976.024.162-.132.511-.374.427a1.893,1.893,0,0,1-1.277-.9c-.089-.213.174-.449.522-.5" transform="translate(-74.403 -180.411)" fill="#dfeafa"/>
            <path id="Trazado_146554" data-name="Trazado 146554" d="M74.332,227.253c-.049.274-.233.492-.437.428a1.553,1.553,0,0,1-1-1.189.412.412,0,0,1,.526-.4,2.037,2.037,0,0,1,.909,1.158" transform="translate(-51.3 -159.101)" fill="#e0ebfa"/>
            <path id="Trazado_146555" data-name="Trazado 146555" d="M263.748,217.6c-.252-.129-.6-.251-.471-.536.2-.443.279-1.041.891-1.151.206-.037.519.137.45.36a2.132,2.132,0,0,1-.87,1.327" transform="translate(-185.27 -151.952)" fill="#e0eafa"/>
            <path id="Trazado_146556" data-name="Trazado 146556" d="M272.5,115.337c-.015.386-.294.53-.516.443-.541-.21-.605-.775-.7-1.257a.381.381,0,0,1,.492-.429c.549.216.475.851.724,1.242" transform="translate(-190.92 -80.283)" fill="#e0eafa"/>
            <path id="Trazado_146557" data-name="Trazado 146557" d="M12.025,337.6c-.339-.1-.923.207-.875-.5.045-.664.6-.39.946-.41.323-.019.808-.177.817.428.01.711-.56.373-.887.481" transform="translate(-7.845 -236.929)" fill="#d5e1fa"/>
            <path id="Trazado_146558" data-name="Trazado 146558" d="M27.063,337.616c-.323-.12-.9.241-.917-.451s.549-.451.9-.46.9-.2.866.491c-.028.624-.536.32-.847.42" transform="translate(-18.401 -236.943)" fill="#d5e1fa"/>
            <path id="Trazado_146559" data-name="Trazado 146559" d="M41.924,337.6c-.35-.061-.846.137-.8-.483.047-.671.589-.407.936-.423.321-.015.822-.185.827.416.007.793-.642.345-.96.491" transform="translate(-28.939 -236.933)" fill="#d5e1fa"/>
            <path id="Trazado_146560" data-name="Trazado 146560" d="M57.061,337.616c-.39-.113-.974.193-.928-.512.043-.666.6-.391.944-.411.323-.019.8-.177.819.426.019.732-.584.33-.835.5" transform="translate(-39.503 -236.929)" fill="#d5e1fa"/>
            <path id="Trazado_146561" data-name="Trazado 146561" d="M72,337.6c-.338-.1-.922.208-.876-.5.044-.665.6-.391.944-.411.323-.019.808-.177.818.427.012.711-.559.374-.887.482" transform="translate(-50.055 -236.929)" fill="#d5e1fa"/>
            <path id="Trazado_146562" data-name="Trazado 146562" d="M87.04,337.616c-.323-.12-.9.242-.917-.451s.549-.45.9-.459.9-.2.866.491c-.028.624-.537.319-.847.42" transform="translate(-60.611 -236.943)" fill="#d5e1fa"/>
            <path id="Trazado_146563" data-name="Trazado 146563" d="M102.039,336.707c.334.068.823-.162.84.443.019.707-.543.459-.882.46s-.914.24-.881-.46c.032-.677.6-.337.923-.443" transform="translate(-71.163 -236.967)" fill="#d5e1fa"/>
            <path id="Trazado_146564" data-name="Trazado 146564" d="M117.011,337.608c-.323-.11-.9.23-.9-.467.008-.68.568-.429.914-.44.32-.01.807-.2.847.4.049.713-.519.422-.866.51" transform="translate(-81.719 -236.936)" fill="#d5e1fa"/>
            <path id="Trazado_146565" data-name="Trazado 146565" d="M131.956,337.608c-.313-.1-.835.2-.853-.416-.022-.77.6-.466.972-.494.329-.025.812-.155.792.454-.023.7-.59.336-.911.456" transform="translate(-92.267 -236.935)" fill="#d5e1fa"/>
            <path id="Trazado_146566" data-name="Trazado 146566" d="M212.687,336.707c.351.063.9-.165.889.488-.014.669-.58.406-.922.418-.313.012-.81.2-.838-.392-.032-.669.5-.462.871-.514" transform="translate(-149.071 -236.967)" fill="#d0defa"/>
            <path id="Trazado_146567" data-name="Trazado 146567" d="M227.7,337.616c-.33-.1-.894.216-.89-.476,0-.584.478-.456.81-.442.357.015.9-.212.949.42.054.693-.528.406-.868.5" transform="translate(-159.624 -236.941)" fill="#d0defa"/>
            <path id="Trazado_146568" data-name="Trazado 146568" d="M242.648,337.626c-.323-.082-.821.172-.839-.43-.02-.67.513-.488.873-.488s.909-.169.887.481c-.023.671-.6.323-.92.437" transform="translate(-170.179 -236.952)" fill="#d0defa"/>
            <path id="Trazado_146569" data-name="Trazado 146569" d="M257.655,337.63c-.317-.089-.819.184-.853-.413-.038-.662.488-.513.855-.506s.906-.182.9.466c0,.679-.58.345-.906.453" transform="translate(-180.73 -236.955)" fill="#d0defa"/>
            <path id="Trazado_146570" data-name="Trazado 146570" d="M272.647,337.628c-.315-.092-.818.187-.856-.409-.042-.661.482-.519.851-.51s.906-.185.908.462c0,.68-.576.352-.9.458" transform="translate(-191.279 -236.954)" fill="#d0defa"/>
            <path id="Trazado_146571" data-name="Trazado 146571" d="M287.672,337.62c-.337-.1-.9.2-.877-.493.022-.579.5-.434.826-.424.358.011.9-.2.932.435.033.688-.547.384-.881.482" transform="translate(-201.839 -236.945)" fill="#d0defa"/>
            <path id="Trazado_146572" data-name="Trazado 146572" d="M302.69,337.644c-.37-.1-.871.167-.9-.43-.036-.663.491-.51.857-.5s.9-.18.9.467c0,.7-.606.3-.857.466" transform="translate(-212.39 -236.955)" fill="#d0defa"/>
            <path id="Trazado_146573" data-name="Trazado 146573" d="M317.712,337.632c-.382-.116-.947.2-.935-.5.01-.583.484-.448.815-.436.358.014.9-.209.944.425.052.71-.558.359-.825.508" transform="translate(-222.94 -236.942)" fill="#d0defa"/>
            <path id="Trazado_146574" data-name="Trazado 146574" d="M197.717,337.616c-.331-.1-.894.216-.889-.477,0-.584.478-.455.81-.441.357.015.9-.212.948.42.053.693-.529.406-.869.5" transform="translate(-138.523 -236.941)" fill="#d0defa"/>
            <path id="Trazado_146575" data-name="Trazado 146575" d="M117.391,131c-.222.006-.443.008-.664.018-1.972.086-2.952-.76-3.107-2.758a16.947,16.947,0,0,1,.122-3.986c.49-3.064-.006-5.784-2.424-7.994a18.643,18.643,0,0,1-2.427-2.881c-1.8-2.488-1.245-4.278,1.653-5.258a31.65,31.65,0,0,1,4.284-1.116,7.216,7.216,0,0,0,5.35-3.882,24.042,24.042,0,0,1,2.667-4.209c1.668-1.985,3.319-1.985,4.976.009a29.024,29.024,0,0,1,2.767,4.28,6.914,6.914,0,0,0,5.035,3.6,35.451,35.451,0,0,1,4.618,1.153c2.545.827,3.077,2.042,2.154,4.543-.225,1.372-1.3,2.195-2.106,3.173a30.256,30.256,0,0,0-2.138,2.689,5.667,5.667,0,0,0-.833,3.817,41.706,41.706,0,0,1,.361,5.305c-.067,3.02-1.759,4.285-4.685,3.468a26.707,26.707,0,0,1-4.232-1.663,7.046,7.046,0,0,0-6.6.073,22.6,22.6,0,0,1-3.482,1.446,1.778,1.778,0,0,1-1.286.167" transform="translate(-75.908 -68.578)" fill="#e6ecfa"/>
            <path id="Trazado_146576" data-name="Trazado 146576" d="M139.968,166.816c1.775-.718,3.572-1.386,5.319-2.166a6.731,6.731,0,0,1,5.665.009,28.894,28.894,0,0,0,5.269,1.98c2.259.478,3.57-.51,3.729-2.816a28.2,28.2,0,0,0-.325-5.407,6.679,6.679,0,0,1,1.662-5.521,43.54,43.54,0,0,0,3.686-4.554,14.048,14.048,0,0,1,2.62.848c2.018,1.028,2.382,2.269,1.215,4.219a26.941,26.941,0,0,1-3.3,4.135,7.235,7.235,0,0,0-1.88,6.39,15.751,15.751,0,0,1,.228,5.271c-.44,2.38-1.733,2.791-3.878,2.365a30.259,30.259,0,0,1-5.365-2.018,6.858,6.858,0,0,0-5.664.187,28.477,28.477,0,0,1-5.359,2.041,2.545,2.545,0,0,1-3.348-2.114,10.852,10.852,0,0,1-.275-2.848" transform="translate(-98.485 -104.398)" fill="#0082fe"/>
          </g>
        </g>
      </g>
    </g>
  </g>
</svg>
