<svg xmlns="http://www.w3.org/2000/svg" xmlns:xlink="http://www.w3.org/1999/xlink" width="322.334" height="204.33" viewBox="0 0 322.334 204.33">
  <defs>
    <clipPath id="clip-path">
      <rect id="Rectángulo_36271" data-name="Rectángulo 36271" width="322.334" height="204.33" fill="none"/>
    </clipPath>
  </defs>
  <g id="Grupo_141374" data-name="Grupo 141374" transform="translate(0 -0.003)">
    <g id="Grupo_87758" data-name="Grupo 87758" transform="translate(0 0.003)" clip-path="url(#clip-path)">
      <path id="Trazado_116885" data-name="Trazado 116885" d="M582.575,257.515V378.3a3.636,3.636,0,0,1-3.406,3.827H404.9a3.636,3.636,0,0,1-3.406-3.827V257.515a3.635,3.635,0,0,1,3.406-3.827H579.169a3.635,3.635,0,0,1,3.406,3.827" transform="translate(-324.594 -205.099)" fill="#b8c0c7"/>
      <path id="Trazado_116886" data-name="Trazado 116886" d="M481.027,222.225v9.8H286.543v-9.8a3.658,3.658,0,0,1,3.659-3.658H477.369a3.658,3.658,0,0,1,3.658,3.658" transform="translate(-231.661 -176.705)" fill="#43a1f6"/>
      <path id="Trazado_116887" data-name="Trazado 116887" d="M317.605,246.5a1.7,1.7,0,1,1,1.7,1.7,1.7,1.7,0,0,1-1.7-1.7" transform="translate(-256.773 -197.91)" fill="#e9e9e9"/>
      <path id="Trazado_116888" data-name="Trazado 116888" d="M352.644,246.5a1.7,1.7,0,1,1,1.7,1.7,1.7,1.7,0,0,1-1.7-1.7" transform="translate(-285.101 -197.91)" fill="#e9e9e9"/>
      <path id="Trazado_116889" data-name="Trazado 116889" d="M388.569,246.5a1.7,1.7,0,1,1,1.7,1.7,1.7,1.7,0,0,1-1.7-1.7" transform="translate(-314.145 -197.91)" fill="#e9e9e9"/>
      <path id="Trazado_116890" data-name="Trazado 116890" d="M194.29,722.131a2.6,2.6,0,0,0-2.9-2.827,3.709,3.709,0,0,1,1.452.779,3.735,3.735,0,0,0-4.207.635c-2.192,1.817-.83,6.375-1.5,7.24s-3.263,1.038-2.945,3.836,8.239,6.3,7.73,8.617c0,0,3.1-4.563.885-6.646A4.113,4.113,0,0,1,194,735.995s.294-2.365-1.211-3.122a5.556,5.556,0,0,1-2.308-3.556c.115-.438,3.807-7.187,3.807-7.187" transform="translate(-148.894 -581.534)" fill="#151f2c"/>
      <path id="Trazado_116891" data-name="Trazado 116891" d="M206.659,804.92s2.359,9.761,4.676,11.713c1.392,1.173,5.531,3.864,5.531,3.864l-1.722.625s-5.741-1.939-7.027-3.45-4.8-9.084-4.8-9.084Z" transform="translate(-164.372 -650.752)" fill="#ee805f"/>
      <path id="Trazado_116892" data-name="Trazado 116892" d="M98.794,855.507l.065.115c.516.9,1.7,3.1,3.005,5.5.617,1.142,1.263,2.33,1.876,3.448,1.056,1.93,2.017,3.649,2.577,4.557s.99,1.573,1.16,1.832h0a.43.43,0,0,1,.055.268,14,14,0,0,0,.037,2.42,18.564,18.564,0,0,0,6.066,12.024l1.57.232s-2.221-8.229-2.875-12.881a8.936,8.936,0,0,1-.12-1.844,19.257,19.257,0,0,0-.507-5.035,112.781,112.781,0,0,0-3.21-11.654c-.073-.228-2.281-8.213-2.281-8.213-1.853,1.619-8.61,2.288-8.61,2.288s-1.146,2.786,1.19,6.94" transform="translate(-78.682 -684.19)" fill="#384152"/>
      <path id="Trazado_116893" data-name="Trazado 116893" d="M180.092,1048.159h-6.551a3.6,3.6,0,0,1,.185-1.756c.328-.727.8-.75.06-1.889a3.99,3.99,0,0,0,2.7.479,8.021,8.021,0,0,0,1.136,1.729c.428.308,2.337.2,2.469,1.438" transform="translate(-140.273 -844.456)" fill="#151f2c"/>
      <path id="Trazado_116894" data-name="Trazado 116894" d="M105,878.151l.065.115c.516.9,3.309,6.055,4.613,8.461a34.89,34.89,0,0,1-.46-12.439Z" transform="translate(-84.891 -706.834)" fill="#151f2c"/>
      <path id="Trazado_116895" data-name="Trazado 116895" d="M210.787,731.793a26.277,26.277,0,0,0-3.934,1.923c-1.775,1.969-1.269,4.538-.253,4.563.651.016.525,1.1.525,1.1l7.256-3.069s-.874-5.095-3.594-4.515" transform="translate(-166.284 -591.594)" fill="#151f2c"/>
      <path id="Trazado_116896" data-name="Trazado 116896" d="M203.5,797.267a9.293,9.293,0,0,1,.966,4,6.944,6.944,0,0,1-4.785,2.634s2.969-6.632,3.818-6.63" transform="translate(-161.439 -644.565)" fill="#43a1f6"/>
      <path id="Trazado_116897" data-name="Trazado 116897" d="M62.259,843.284l.022-1.225c-2.441.308-8.417-2.917-8.417-2.917s-2.554,1.7-2.9,6.55c-.171,2.368-1.25,12.381-1.369,15.371-.044,1.084-.058,1.857-.063,2.166a.007.007,0,0,1,0,0,.426.426,0,0,1-.1.252,13.981,13.981,0,0,0-1.323,2.028c-3.725,6.931-1.777,16.348-1.777,16.348l.865-.22s3.15-9.763,5.208-13.986a8.842,8.842,0,0,1,.932-1.6,19.274,19.274,0,0,0,2.395-4.458c1.521-3.633,6.534-18.316,6.534-18.316" transform="translate(-37.041 -678.419)" fill="#384152"/>
      <path id="Trazado_116898" data-name="Trazado 116898" d="M47.869,1047.959H41.318a3.6,3.6,0,0,1,.185-1.756c.328-.727.842-1.057.719-1.937a2.359,2.359,0,0,0,2.042.781,7.189,7.189,0,0,0,1.137,1.474c.428.308,2.337.2,2.469,1.438" transform="translate(-33.375 -844.256)" fill="#151f2c"/>
      <path id="Trazado_116899" data-name="Trazado 116899" d="M107.718,789.632c-.88.15.144.85-1.067.981a21.884,21.884,0,0,0-4.433.688,1,1,0,0,0-.638.517c-.4,1.214-2.961,3.3-2.961,3.3-11.407-.519-12.142-5.6-12.142-5.6,7.4-7.19,13.7-11.109,18.907-11.595a9.257,9.257,0,0,1,3.776.4c1.821.81,2.818,3.277,2.818,3.277s-.917,7.466-4.26,8.037" transform="translate(-69.914 -628.893)" fill="#43a1f6"/>
      <path id="Trazado_116900" data-name="Trazado 116900" d="M172.94,805.176a21.865,21.865,0,0,0-4.433.688,18.166,18.166,0,0,1,2.3-9.969s1.751,7.128,2.129,9.28" transform="translate(-136.202 -643.456)" fill="#2b6eb2"/>
      <path id="Trazado_116901" data-name="Trazado 116901" d="M204.3,771.582c.326,1.02,1.411,3.926,2.916,2.808a3.711,3.711,0,0,1,.638-1.488c.476-.819,1.044-1.655,1.044-1.655l-2.452-2.148-.146-.128a6.247,6.247,0,0,1-1.824,2.071.49.49,0,0,0-.175.541" transform="translate(-165.151 -621.688)" fill="#ee805f"/>
      <path id="Trazado_116902" data-name="Trazado 116902" d="M217.86,771.788s-.567.835-1.043,1.654c-1.524-.939-1.525-2.826-1.408-3.8Z" transform="translate(-174.114 -622.228)" fill="#de6b4d"/>
      <path id="Trazado_116903" data-name="Trazado 116903" d="M217.5,754.372s-3.7-2.059-2.382-4.344,1.727-4.089,4.146-2.871,2.37,2.352,2.116,3.222-2.883,4.469-3.879,3.993" transform="translate(-173.685 -603.736)" fill="#ee805f"/>
      <path id="Trazado_116904" data-name="Trazado 116904" d="M220.361,747.74c-.169-1.014-.685-1.111-1.044-1.043a2.96,2.96,0,0,0-3.6-1.378,5.038,5.038,0,0,1-2.916,1.752s.429.8,2.2,1.294a3.027,3.027,0,0,0,1.745-.14,9.875,9.875,0,0,1-2.511.946c2.331.214,4.549-1.918,4.78-2.146a3.317,3.317,0,0,1,.183,1.527c-.153.687-.763,1.931-.391,2.092,0,0,1.809-1.383,1.555-2.9" transform="translate(-172.043 -602.429)" fill="#151f2c"/>
      <rect id="Rectángulo_36260" data-name="Rectángulo 36260" width="8.056" height="30.715" transform="translate(54.045 181.885) rotate(-64.01)" fill="#43a1f6"/>
      <path id="Trazado_116905" data-name="Trazado 116905" d="M216.022,884a9.128,9.128,0,0,1-4.941-6.281,2.074,2.074,0,1,1,4.052-.89,5.024,5.024,0,1,0,3.487-5.893,2.074,2.074,0,0,1-1.175-3.979A9.173,9.173,0,1,1,216.022,884" transform="translate(-170.612 -700.606)" fill="#43a1f6"/>
      <path id="Trazado_116906" data-name="Trazado 116906" d="M419.257,983.431a9.173,9.173,0,1,1,12.55-11.619,2.074,2.074,0,1,1-3.858,1.525,5.024,5.024,0,1,0-2.495,6.377,2.074,2.074,0,0,1,1.794,3.741,9.128,9.128,0,0,1-7.991-.024" transform="translate(-334.79 -780.99)" fill="#43a1f6"/>
      <path id="Trazado_116907" data-name="Trazado 116907" d="M329.476,946.5l-14.545-7.091a.846.846,0,0,1-.389-1.128l.37-.759a.846.846,0,0,1,1.128-.389l14.545,7.091a.846.846,0,0,1,.389,1.128l-.37.759a.846.846,0,0,1-1.128.389" transform="translate(-254.229 -757.578)" fill="#2b6eb2"/>
      <path id="Trazado_116908" data-name="Trazado 116908" d="M210.6,918.334a2.449,2.449,0,0,0,.371,1.046c.292.356,1.139,1.218,1.154,1.722,0,0-.043.224-.225.183s-.813-.666-1.137-.621a6.266,6.266,0,0,0,.344,1.3,3.555,3.555,0,0,1,.384,1.6c-.1.246-1.818-1.184-2.338-1.883s-.008-3.534-.008-3.534Z" transform="translate(-168.909 -742.291)" fill="#ee805f"/>
      <path id="Trazado_116909" data-name="Trazado 116909" d="M177.353,790.846s-4.332-.237-5.1,2.483,1.444,13.576,1.921,14.7c.869,2.04,5.1,7.862,5.1,7.862l1.555-.473s-2.82-8.894-3.449-9.774c-.988-1.382,1.274-13.61-.023-14.793" transform="translate(-139.129 -639.37)" fill="#ee805f"/>
      <path id="Trazado_116910" data-name="Trazado 116910" d="M168.471,793.575c.011.064,4.1.752,6.656-.546,0,0,2.136-6.692-.917-6.372s-4.86,1.282-4.937,2.743a28.138,28.138,0,0,1-.8,4.174" transform="translate(-136.203 -635.979)" fill="#43a1f6"/>
      <path id="Trazado_116911" data-name="Trazado 116911" d="M258.754,863.5a1.694,1.694,0,0,0-.718.181c-.236.182-.5.5.028.763.794.4,2.381.22,2.319-.018-.2-.751-.482-.979-1.629-.926" transform="translate(-208.387 -698.105)" fill="#ee805f"/>
      <path id="Trazado_116912" data-name="Trazado 116912" d="M525.729,279.281a.741.741,0,0,0-.132.793,0,0,0,0,0,0,0,4.925,4.925,0,0,0,1.556,1.707c.094.076.177.144.25.208l.056.05.043.039c.684.631.427.775,1.656,2.055,1.4,1.458,2.366,1.484,2.641,1.352.233-.113-.24-.887-.762-1.756l-.076-.127c-.07-.116-.139-.233-.208-.349-.613-1.046-.455-1.537-.31-3.094.118-1.265,1.968-7.068,1.968-7.068l-2.685-.463s-.809,4.621-1.7,5.332c-.476.379-1.01.384-1.468.665-.032.02-.064.039-.1.06a3.512,3.512,0,0,0-.735.59" transform="translate(-424.88 -220.415)" fill="#ee805f"/>
      <path id="Trazado_116913" data-name="Trazado 116913" d="M525.729,304.6a.741.741,0,0,0-.132.793,0,0,0,0,0,0,0,5.706,5.706,0,0,0,1.559,1.7c.093.077.175.148.247.214l.056.05.043.039c.684.631.427.775,1.656,2.055,1.4,1.458,2.366,1.484,2.641,1.351.233-.113-.24-.887-.762-1.756a5.971,5.971,0,0,1-2.5-1.841c-.844-1.077-1.407-2.46-1.981-3.262-.032.02-.064.039-.1.06a3.513,3.513,0,0,0-.735.59" transform="translate(-424.88 -245.732)" fill="#151f2c"/>
      <path id="Trazado_116914" data-name="Trazado 116914" d="M630.53,274.153c.166.829,1.347.691,2.668.368s1.006.061,2.885-.147,2.448-.909,2.506-1.188c.051-.248-.877-.335-1.873-.45l-.377-.045a8.136,8.136,0,0,1-2.969-1.462,11.93,11.93,0,0,1-2.411-2.864l-2.577.2s1.352,2.054,1.875,2.947a3.115,3.115,0,0,1,.253,1.756,3.3,3.3,0,0,0,.02.881" transform="translate(-508.026 -216.965)" fill="#ee805f"/>
      <path id="Trazado_116915" data-name="Trazado 116915" d="M642.1,292.973c1.32-.323,1.006.061,2.885-.147s2.448-.909,2.505-1.188c.051-.248-.877-.335-1.873-.45l-.009.019a5.3,5.3,0,0,1-2.691.836c-1.275.031-2.625-.334-3.505-.32a3.309,3.309,0,0,0,.02.881c.166.829,1.348.691,2.668.368" transform="translate(-516.927 -235.417)" fill="#151f2c"/>
      <path id="Trazado_116916" data-name="Trazado 116916" d="M550.725,195.126l-2.409,6.482-3.145,8.463a5.09,5.09,0,0,1-1.671-.153,7.243,7.243,0,0,1-1.616-.786s.873-9.087,2.5-14.3a9.29,9.29,0,0,1,1.4-3.032c2.525-2.984,4.936,3.329,4.936,3.329" transform="translate(-438.096 -154.414)" fill="#151f2c"/>
      <path id="Trazado_116917" data-name="Trazado 116917" d="M476.9,153.352c-1.578-.509-6.079.145-10.6,1.03l-.947-1.561-9.766-.763s-3.222,7.147-1.458,11.7a1.652,1.652,0,0,0,1.653,1.113h.143l7.7,0c4.857,0,10.279-3.339,10.98-3.479,1.148-.23,1.607,2.066,2.755,4.477s10.791,10.676,10.791,10.676a8.491,8.491,0,0,0,2.094-.215,2.063,2.063,0,0,0,.9-.568S480.464,154.5,476.9,153.352" transform="translate(-366.725 -122.934)" fill="#384152"/>
      <path id="Trazado_116918" data-name="Trazado 116918" d="M445.468.159a10.3,10.3,0,0,0-3.552.029c-3.716.366-4.965,4.511-4.4,7.727.519,2.968-.986,3.789-2.731,6.133-3.5,4.7-1.212,8.664,1.549,9.685,1.656.613,3.956-.934,3.956-.934a106.788,106.788,0,0,0,10.17-7.369c4.9-1.919-1.5-14.376-4.989-15.273" transform="translate(-350.071 -0.003)" fill="#151f2c"/>
      <path id="Trazado_116919" data-name="Trazado 116919" d="M479.788,52.535c.1.344-1.528.976-2.769.744-1.167-.218-2.476-1.584-2.206-1.713.447-.212.747-.74.5-3.594l.222.025,3.735.427s.011,1.163.1,2.253a7.377,7.377,0,0,0,.417,1.859" transform="translate(-383.843 -38.784)" fill="#ee805f"/>
      <path id="Trazado_116920" data-name="Trazado 116920" d="M482.486,48.529s.011,1.163.1,2.253c-2.061.111-3.3-1.676-3.833-2.68Z" transform="translate(-387.055 -38.89)" fill="#de6b4d"/>
      <path id="Trazado_116921" data-name="Trazado 116921" d="M479.521,21.265s-4.859.479-5.111-2.551-1.049-5.01,2.043-5.444,3.791.672,4.121,1.663.2,6.129-1.054,6.332" transform="translate(-383.318 -10.65)" fill="#ee805f"/>
      <path id="Trazado_116922" data-name="Trazado 116922" d="M472.914,9.155s-.612,3.7-3.379,4.581a4.426,4.426,0,0,1-2.933.218,8.229,8.229,0,0,0,1.317-3.08,1.481,1.481,0,0,1,.988-1.131c1.434-.472,3.173-1.762,4.007-.588" transform="translate(-377.232 -7.014)" fill="#151f2c"/>
      <path id="Trazado_116923" data-name="Trazado 116923" d="M494.778,11.721a3.215,3.215,0,0,1,1.727,1.386,6.2,6.2,0,0,1,.869,2.994s.85-3.427-.39-4.7a1.29,1.29,0,0,0-2.207.321" transform="translate(-400.012 -8.791)" fill="#151f2c"/>
      <path id="Trazado_116924" data-name="Trazado 116924" d="M453.37,76.527c.087.368.161.707.221,1.019.1.5.167.939.215,1.322.148,1.2.1,1.9.2,2.678A6.667,6.667,0,0,0,454.374,83c.2.555,5.481,1.05,8.485.85a4.117,4.117,0,0,0,1.939-.419c1.072-.931.965,1.116,1.112-8.679.071-4.778-4.054-9.033-4.054-9.033s-.329,2.041-4.421-.388c-.145-.085-1.757,2.3-3.307,5.238-1.708,3.245-1.24,3.932-.757,5.953" transform="translate(-366.174 -52.821)" fill="#43a1f6"/>
      <path id="Trazado_116925" data-name="Trazado 116925" d="M548.316,217.787l-3.145,8.463a5.1,5.1,0,0,1-1.671-.153,7.248,7.248,0,0,1-1.616-.787s.873-9.087,2.5-14.3Z" transform="translate(-438.096 -170.594)" fill="#384152"/>
      <path id="Trazado_116926" data-name="Trazado 116926" d="M499.559,67.367s4.21.714,4.7,2.526,3.909,11.949,3.909,11.949-2.646.9-3.635-.086-3.44-9.172-3.44-9.172Z" transform="translate(-403.877 -54.465)" fill="#43a1f6"/>
      <path id="Trazado_116927" data-name="Trazado 116927" d="M496.422,45.67a.835.835,0,0,0,.742.5c.538,0,.683-.08.785-.194a1.686,1.686,0,0,0,.2-.333,4.57,4.57,0,0,0-1.73.029" transform="translate(-401.341 -36.843)" fill="#fff"/>
      <path id="Trazado_116928" data-name="Trazado 116928" d="M457.531,134.841c.148,1.2.1,1.9.2,2.678,3.822.012,8.932-2.952,8.932-2.952Z" transform="translate(-369.899 -108.794)" fill="#2b6eb2"/>
      <path id="Trazado_116929" data-name="Trazado 116929" d="M466,100.824s-5.954-.177-6.958-3.562c-1.1-3.718-2.337,1.529-2.337,1.529l.657,3.349h6.532Z" transform="translate(-369.227 -77.557)" fill="#2b6eb2"/>
      <path id="Trazado_116930" data-name="Trazado 116930" d="M524.168,64.2l-.322-.8a2.26,2.26,0,0,0-2.1-1.414h-5.936V81.837h24.554V65.757H526.474a2.487,2.487,0,0,1-2.306-1.556" transform="translate(-417.02 -50.118)" fill="#b8c0c7"/>
      <path id="Trazado_116931" data-name="Trazado 116931" d="M535.152,109.685v-1.431l5.018-2.2v1.462l-3.5,1.441,3.5,1.441v1.482Z" transform="translate(-432.653 -85.744)" fill="#fff"/>
      <path id="Trazado_116932" data-name="Trazado 116932" d="M569.189,97.126h1.337l-4.593,9.6H564.6Z" transform="translate(-456.458 -78.524)" fill="#fff"/>
      <path id="Trazado_116933" data-name="Trazado 116933" d="M603.5,108.255v1.431l-5.018,2.2v-1.462l3.5-1.441-3.5-1.441v-1.482Z" transform="translate(-483.851 -85.744)" fill="#fff"/>
      <path id="Trazado_116934" data-name="Trazado 116934" d="M505.228,116.872l.431-.676a3.463,3.463,0,0,0,.819-.447c.569-.4.494-1,.778-.934l0,1.315-.031,0c1.22.326,2.647-.028,2.676.275.078.836-.568,1.212-1.11,1.474a1.963,1.963,0,0,1-1.634.268c-.547-.17-1.409-.344-1.409-.344Z" transform="translate(-408.46 -92.821)" fill="#ee805f"/>
      <path id="Trazado_116935" data-name="Trazado 116935" d="M448.566,65.348s-3.865.253-4.831,1.76-2.165,9.161-1.662,11.79,12.88-.5,12.88-.5l-.395-2.28s-7.143.041-7.55-.889c-.541-1.237,1.559-9.878,1.559-9.878" transform="translate(-357.305 -52.832)" fill="#43a1f6"/>
      <path id="Trazado_116936" data-name="Trazado 116936" d="M573.883,78.488a1.439,1.439,0,0,0,1.459.937c.547-.11,1.259-1.288.633-1.548a1.778,1.778,0,0,0-2.092.611" transform="translate(-463.964 -62.858)" fill="#ee805f"/>
      <rect id="Rectángulo_36261" data-name="Rectángulo 36261" width="30.484" height="0.147" transform="translate(147.576 68.721) rotate(-61.903)" fill="#151f2c"/>
      <rect id="Rectángulo_36262" data-name="Rectángulo 36262" width="0.147" height="23.738" transform="translate(198.364 41.912) rotate(-42.827)" fill="#151f2c"/>
      <path id="Trazado_116937" data-name="Trazado 116937" d="M813.392,312.586a6.457,6.457,0,0,1-1.2,4.729,6.157,6.157,0,0,1-4.117,2.463l-72.146,9.913a6.606,6.606,0,0,1-7.566-5.421,6.211,6.211,0,0,1,1.352-4.748,6.927,6.927,0,0,1,4.472-2.512l72.146-9.913a6.345,6.345,0,0,1,7.064,5.489" transform="translate(-588.808 -248.232)" fill="#e9e9e9"/>
      <path id="Trazado_116938" data-name="Trazado 116938" d="M1087.64,312.586a6.457,6.457,0,0,1-1.2,4.729,6.158,6.158,0,0,1-4.117,2.463l-13.055,1.794-1.742-12.681,13.055-1.794a6.345,6.345,0,0,1,7.064,5.489" transform="translate(-863.056 -248.232)" fill="#43a1f6"/>
      <path id="Trazado_116939" data-name="Trazado 116939" d="M1115.41,326.557a3.311,3.311,0,0,1-.489.03,3.249,3.249,0,1,1,.489-.03m-2.355-5.18a2.725,2.725,0,1,0,3.853.045,2.728,2.728,0,0,0-3.853-.045" transform="translate(-898.772 -258.763)" fill="#fff"/>
      <rect id="Rectángulo_36263" data-name="Rectángulo 36263" width="4.451" height="0.537" transform="matrix(0.715, -0.699, 0.699, 0.715, 210.675, 69.573)" fill="#fff"/>
      <path id="Trazado_116940" data-name="Trazado 116940" d="M1094.567,358.723h0a.48.48,0,0,1,.007-.678l1.875-1.832a.48.48,0,1,1,.67.686l-1.875,1.832a.479.479,0,0,1-.678-.008" transform="translate(-884.811 -287.876)" fill="#fff"/>
      <path id="Trazado_116941" data-name="Trazado 116941" d="M473.988,689.934H458.915a.568.568,0,0,1-.568-.568v-.239a.568.568,0,0,1,.568-.568h15.073a.568.568,0,0,1,.568.568v.239a.568.568,0,0,1-.568.568" transform="translate(-370.558 -556.678)" fill="#43a1f6"/>
      <path id="Trazado_116942" data-name="Trazado 116942" d="M466.252,716.467h-7.437a.469.469,0,1,1,0-.939h7.437a.469.469,0,0,1,0,.939" transform="translate(-370.558 -578.482)" fill="#151f2c"/>
      <path id="Trazado_116943" data-name="Trazado 116943" d="M471.947,706.191H458.783a.437.437,0,0,1-.437-.437v-.065a.437.437,0,0,1,.437-.437h13.165a.437.437,0,0,1,.437.437v.065a.437.437,0,0,1-.437.437" transform="translate(-370.558 -570.175)" fill="#151f2c"/>
      <path id="Trazado_116944" data-name="Trazado 116944" d="M551.005,706.191H538.741a.422.422,0,0,1-.422-.422v-.095a.422.422,0,0,1,.422-.422h12.265a.422.422,0,0,1,.422.422v.095a.422.422,0,0,1-.422.422" transform="translate(-435.213 -570.175)" fill="#151f2c"/>
      <path id="Trazado_116945" data-name="Trazado 116945" d="M514.685,716.467h-7.437a.469.469,0,0,1,0-.939h7.437a.469.469,0,1,1,0,.939" transform="translate(-409.714 -578.482)" fill="#151f2c"/>
      <path id="Trazado_116946" data-name="Trazado 116946" d="M569.817,689.934H554.744a.568.568,0,0,1-.568-.568v-.239a.568.568,0,0,1,.568-.568h15.073a.568.568,0,0,1,.568.568v.239a.568.568,0,0,1-.568.568" transform="translate(-448.033 -556.678)" fill="#43a1f6"/>
      <path id="Trazado_116947" data-name="Trazado 116947" d="M473.988,744H458.915a.568.568,0,0,1-.568-.568v-.239a.568.568,0,0,1,.568-.568h15.073a.568.568,0,0,1,.568.568v.239a.568.568,0,0,1-.568.568" transform="translate(-370.558 -600.385)" fill="#43a1f6"/>
      <path id="Trazado_116948" data-name="Trazado 116948" d="M466.252,770.529h-7.437a.469.469,0,1,1,0-.939h7.437a.469.469,0,0,1,0,.939" transform="translate(-370.558 -622.189)" fill="#151f2c"/>
      <path id="Trazado_116949" data-name="Trazado 116949" d="M471.947,760.253H458.783a.437.437,0,0,1-.437-.437v-.065a.437.437,0,0,1,.437-.437h13.165a.437.437,0,0,1,.437.437v.065a.437.437,0,0,1-.437.437" transform="translate(-370.558 -613.881)" fill="#151f2c"/>
      <path id="Trazado_116950" data-name="Trazado 116950" d="M551.005,760.253H538.741a.422.422,0,0,1-.422-.422v-.094a.422.422,0,0,1,.422-.422h12.265a.422.422,0,0,1,.422.422v.094a.422.422,0,0,1-.422.422" transform="translate(-435.213 -613.881)" fill="#151f2c"/>
      <path id="Trazado_116951" data-name="Trazado 116951" d="M514.685,770.529h-7.437a.469.469,0,0,1,0-.939h7.437a.469.469,0,1,1,0,.939" transform="translate(-409.714 -622.189)" fill="#151f2c"/>
      <path id="Trazado_116952" data-name="Trazado 116952" d="M569.817,744H554.744a.568.568,0,0,1-.568-.568v-.239a.568.568,0,0,1,.568-.568h15.073a.568.568,0,0,1,.568.568v.239a.568.568,0,0,1-.568.568" transform="translate(-448.033 -600.385)" fill="#43a1f6"/>
      <path id="Trazado_116953" data-name="Trazado 116953" d="M881.037,387.863l-8.608,2-4.257,7.746-3.25-17.652Z" transform="translate(-699.26 -307.186)" fill="#384152"/>
      <rect id="Rectángulo_36264" data-name="Rectángulo 36264" width="1.574" height="9.104" transform="translate(171.444 81.93) rotate(-37.15)" fill="#384152"/>
      <path id="Trazado_116954" data-name="Trazado 116954" d="M823.739,509.287H802.571a1.551,1.551,0,0,1-1.551-1.551V486.568a1.551,1.551,0,0,1,1.551-1.551h21.168a1.551,1.551,0,0,1,1.551,1.551v21.168a1.551,1.551,0,0,1-1.551,1.551" transform="translate(-647.599 -392.121)" fill="#e9e9e9"/>
      <path id="Trazado_116955" data-name="Trazado 116955" d="M816.378,545.969l4.716-8.5a1.551,1.551,0,0,1,2.607-.165l2.72,3.71a1.551,1.551,0,0,0,2.4.13,1.551,1.551,0,0,1,2.447.2l2.935,4.532a1.551,1.551,0,0,1-1.3,2.395H817.734a1.551,1.551,0,0,1-1.357-2.3" transform="translate(-659.856 -433.879)" fill="#2b6eb2"/>
      <path id="Trazado_116956" data-name="Trazado 116956" d="M865.8,512.26a1.855,1.855,0,1,1,1.855,1.855,1.855,1.855,0,0,1-1.855-1.855" transform="translate(-699.973 -412.646)" fill="#2b6eb2"/>
      <path id="Trazado_116957" data-name="Trazado 116957" d="M973.706,513.58l-20.974,2.861a1.551,1.551,0,0,1-1.747-1.327l-2.861-20.974a1.551,1.551,0,0,1,1.327-1.747l20.974-2.861a1.551,1.551,0,0,1,1.747,1.327l2.861,20.974a1.551,1.551,0,0,1-1.327,1.747" transform="translate(-766.516 -395.76)" fill="#e9e9e9"/>
      <path id="Trazado_116958" data-name="Trazado 116958" d="M976.222,560.3l3.524-9.062a1.551,1.551,0,0,1,2.561-.516l3.2,3.308a1.551,1.551,0,0,0,2.391-.195,1.551,1.551,0,0,1,2.452-.129l3.521,4.094a1.551,1.551,0,0,1-.966,2.549L977.877,562.4a1.551,1.551,0,0,1-1.655-2.1" transform="translate(-789.156 -444.861)" fill="#2b6eb2"/>
      <path id="Trazado_116959" data-name="Trazado 116959" d="M1015.946,522.732a1.855,1.855,0,1,1,2.089,1.587,1.855,1.855,0,0,1-2.089-1.587" transform="translate(-821.345 -420.91)" fill="#2b6eb2"/>
      <rect id="Rectángulo_36265" data-name="Rectángulo 36265" width="12.231" height="10.487" transform="translate(133.289 192.799)" fill="#43a1f6"/>
      <rect id="Rectángulo_36266" data-name="Rectángulo 36266" width="13.139" height="0.81" transform="translate(132.795 192.35)" fill="#384152"/>
      <rect id="Rectángulo_36267" data-name="Rectángulo 36267" width="12.231" height="3.331" transform="translate(133.289 195.636)" fill="#384152"/>
      <path id="Trazado_116960" data-name="Trazado 116960" d="M785.481,1049.536H773.932a.766.766,0,0,1-.766-.766v-1.281a.766.766,0,0,1,.85-.761l11.549,1.281a.766.766,0,0,1-.084,1.527" transform="translate(-625.079 -846.242)" fill="#43a1f6"/>
      <path id="Trazado_116961" data-name="Trazado 116961" d="M321.942,1062.2l-321.55-.111a.393.393,0,0,1-.392-.392v-.2a.393.393,0,0,1,.392-.392l321.55.111a.393.393,0,0,1,.392.392v.2a.393.393,0,0,1-.392.392" transform="translate(0 -857.866)" fill="#944b34"/>
      <path id="Trazado_116962" data-name="Trazado 116962" d="M527.048,491.089h-1.331a.219.219,0,1,1,0-.438h1.322a.223.223,0,0,1,.224.219.215.215,0,0,1-.214.219m-2.653,0h-1.322a.219.219,0,1,1,0-.438H524.4a.219.219,0,0,1,0,.438m-2.644,0h-1.322a.219.219,0,1,1,0-.438h1.322a.219.219,0,0,1,0,.438m-2.644,0h-1.322a.219.219,0,0,1,0-.438h1.322a.219.219,0,0,1,0,.438m-2.644,0h-1.322a.219.219,0,0,1,0-.438h1.322a.219.219,0,0,1,0,.438m-2.644,0H512.5a.219.219,0,0,1,0-.438h1.322a.219.219,0,1,1,0,.438m-2.644,0h-1.322a.219.219,0,1,1,0-.438h1.322a.219.219,0,1,1,0,.438m-2.644,0H507.21a.219.219,0,0,1,0-.438h1.322a.219.219,0,0,1,0,.438m-2.644,0h-1.322a.219.219,0,0,1,0-.438h1.322a.219.219,0,0,1,0,.438m-2.644,0h-1.322a.219.219,0,0,1,0-.438h1.322a.219.219,0,1,1,0,.438m-2.644,0h-1.322a.219.219,0,1,1,0-.438H500.6a.219.219,0,0,1,0,.438m-2.644,0h-1.322a.219.219,0,1,1,0-.438h1.322a.219.219,0,1,1,0,.438m-2.644,0H493.99a.219.219,0,1,1,0-.438h1.322a.219.219,0,0,1,0,.438m-2.644,0h-1.322a.219.219,0,1,1,0-.438h1.322a.219.219,0,0,1,0,.438m-2.644,0H488.7a.219.219,0,1,1,0-.438h1.322a.219.219,0,1,1,0,.438m-2.644,0h-1.322a.219.219,0,0,1,0-.438h1.322a.219.219,0,1,1,0,.438m-2.644,0h-1.322a.219.219,0,0,1,0-.438h1.322a.219.219,0,0,1,0,.438m-2.644,0h-1.178q-.079,0-.157,0a.219.219,0,0,1,.028-.437c.043,0,.086,0,.13,0h1.178a.219.219,0,0,1,0,.438m46.2-.385a.219.219,0,0,1-.123-.4,2.013,2.013,0,0,0,.738-.914.219.219,0,1,1,.406.164,2.449,2.449,0,0,1-.9,1.113.217.217,0,0,1-.123.038m-48.74-.079a.217.217,0,0,1-.133-.046,2.443,2.443,0,0,1-.83-1.165.219.219,0,1,1,.415-.139,2.009,2.009,0,0,0,.682.957.219.219,0,0,1-.134.392m49.719-2.236a.219.219,0,0,1-.219-.219v-1.322a.219.219,0,1,1,.438,0v1.322a.219.219,0,0,1-.219.219m-50.59-.134a.219.219,0,0,1-.219-.219v-1.322a.219.219,0,1,1,.438,0v1.322a.219.219,0,0,1-.219.219m50.59-2.51a.219.219,0,0,1-.219-.219v-1.322a.219.219,0,1,1,.438,0v1.322a.219.219,0,0,1-.219.219m-50.59-.134a.219.219,0,0,1-.219-.219v-1.322a.219.219,0,1,1,.438,0v1.322a.219.219,0,0,1-.219.219m50.59-2.509a.219.219,0,0,1-.219-.219v-1.322a.219.219,0,0,1,.438,0v1.322a.219.219,0,0,1-.219.219m-50.59-.134a.219.219,0,0,1-.219-.219v-1.322a.219.219,0,0,1,.438,0v1.322a.219.219,0,0,1-.219.219m50.59-2.509a.219.219,0,0,1-.219-.219v-1.322a.219.219,0,1,1,.438,0v1.322a.219.219,0,0,1-.219.219m-50.59-.134a.219.219,0,0,1-.219-.219v-1.322a.219.219,0,0,1,.438,0V480.1a.219.219,0,0,1-.219.219m50.59-2.509a.219.219,0,0,1-.219-.219v-1.322a.219.219,0,1,1,.438,0V477.6a.219.219,0,0,1-.219.219m-50.59-.134a.219.219,0,0,1-.219-.219v-1.322a.219.219,0,0,1,.438,0v1.322a.219.219,0,0,1-.219.219m50.59-2.51a.219.219,0,0,1-.219-.219V473.63a.219.219,0,1,1,.438,0v1.322a.219.219,0,0,1-.219.219m-50.59-.134a.219.219,0,0,1-.219-.219V473.5a.219.219,0,1,1,.438,0v1.322a.219.219,0,0,1-.219.219m50.59-2.509a.219.219,0,0,1-.219-.219v-1.322a.219.219,0,0,1,.438,0v1.322a.219.219,0,0,1-.219.219m-50.59-.135a.219.219,0,0,1-.219-.219v-1.322a.219.219,0,0,1,.438,0v1.322a.219.219,0,0,1-.219.219m50.59-2.509a.219.219,0,0,1-.219-.219v-1.322a.219.219,0,1,1,.438,0v1.322a.219.219,0,0,1-.219.219m-50.59-.134a.219.219,0,0,1-.219-.219v-1.322a.219.219,0,0,1,.438,0v1.322a.219.219,0,0,1-.219.219m50.59-2.509a.219.219,0,0,1-.219-.219V465.7a.219.219,0,1,1,.438,0v1.322a.219.219,0,0,1-.219.219m-50.59-.134a.219.219,0,0,1-.219-.219v-1.322a.219.219,0,1,1,.438,0v1.322a.219.219,0,0,1-.219.219m50.59-2.509a.219.219,0,0,1-.219-.219v-.6a2.014,2.014,0,0,0-.1-.643.219.219,0,1,1,.415-.139,2.445,2.445,0,0,1,.128.782v.6a.219.219,0,0,1-.219.219m-50.59-.135a.219.219,0,0,1-.219-.219v-.462a2.437,2.437,0,0,1,.179-.92.219.219,0,1,1,.406.164,2,2,0,0,0-.147.756v.462a.219.219,0,0,1-.219.219m49.715-2.234a.218.218,0,0,1-.133-.045,2,2,0,0,0-1.1-.412.219.219,0,0,1,.027-.437,2.437,2.437,0,0,1,1.34.5.219.219,0,0,1-.133.392m-48.732-.078a.219.219,0,0,1-.123-.4,2.44,2.44,0,0,1,1.367-.42h0a.219.219,0,0,1,0,.438,2,2,0,0,0-1.123.344.218.218,0,0,1-.122.038m46.191-.382h-1.322a.219.219,0,0,1,0-.438h1.322a.219.219,0,1,1,0,.438m-2.644,0H521.89a.219.219,0,0,1,0-.438h1.322a.219.219,0,0,1,0,.438m-2.644,0h-1.322a.219.219,0,1,1,0-.438h1.322a.219.219,0,0,1,0,.438m-2.644,0H516.6a.219.219,0,1,1,0-.438h1.322a.219.219,0,0,1,0,.438m-2.644,0h-1.322a.219.219,0,1,1,0-.438h1.322a.219.219,0,0,1,0,.438m-2.644,0h-1.322a.219.219,0,0,1,0-.438h1.322a.219.219,0,0,1,0,.438m-2.644,0h-1.322a.219.219,0,1,1,0-.438h1.322a.219.219,0,1,1,0,.438m-2.644,0h-1.322a.219.219,0,1,1,0-.438h1.322a.219.219,0,1,1,0,.438m-2.644,0h-1.322a.219.219,0,0,1,0-.438H504.7a.219.219,0,1,1,0,.438m-2.644,0h-1.322a.219.219,0,1,1,0-.438h1.322a.219.219,0,1,1,0,.438m-2.644,0H498.1a.219.219,0,0,1,0-.438h1.322a.219.219,0,0,1,0,.438m-2.644,0h-1.322a.219.219,0,0,1,0-.438h1.322a.219.219,0,1,1,0,.438m-2.644,0h-1.322a.219.219,0,1,1,0-.438h1.322a.219.219,0,0,1,0,.438m-2.644,0h-1.322a.219.219,0,1,1,0-.438h1.322a.219.219,0,0,1,0,.438m-2.644,0H487.52a.219.219,0,1,1,0-.438h1.322a.219.219,0,1,1,0,.438m-2.644,0h-1.322a.219.219,0,1,1,0-.438H486.2a.219.219,0,0,1,0,.438m-2.644,0h-1.322a.219.219,0,1,1,0-.438h1.322a.219.219,0,0,1,0,.438" transform="translate(-386.822 -372.969)" fill="#151f2c"/>
      <path id="Trazado_116963" data-name="Trazado 116963" d="M1026.631,775.533h-1.18a.194.194,0,0,1,0-.388h1.171a.2.2,0,0,1,.2.194.19.19,0,0,1-.19.194m-2.351,0h-1.171a.194.194,0,0,1,0-.388h1.171a.194.194,0,0,1,0,.388m-2.342,0h-1.171a.194.194,0,0,1,0-.388h1.171a.194.194,0,0,1,0,.388m-2.342,0h-1.171a.194.194,0,0,1,0-.388h1.171a.194.194,0,0,1,0,.388m-2.342,0h-1.171a.194.194,0,0,1,0-.388h1.171a.194.194,0,0,1,0,.388m-2.342,0h-1.171a.194.194,0,0,1,0-.388h1.171a.194.194,0,0,1,0,.388m-2.342,0H1011.4a.194.194,0,0,1,0-.388h1.171a.194.194,0,0,1,0,.388m-2.342,0h-1.171a.194.194,0,1,1,0-.388h1.171a.194.194,0,0,1,0,.388m-2.342,0h-1.171a.194.194,0,0,1,0-.388h1.171a.194.194,0,0,1,0,.388m-2.342,0h-1.181a.194.194,0,1,1,.019-.387h1.161a.194.194,0,0,1,0,.388m21.845-.742h-.006a.194.194,0,0,1-.187-.2v-1.165a.194.194,0,0,1,.388,0V774.6a.194.194,0,0,1-.194.188m-23.743-.031a.194.194,0,0,1-.194-.194v-1.171a.194.194,0,1,1,.388,0v1.171a.194.194,0,0,1-.194.194m23.743-2.311a.194.194,0,0,1-.194-.194v-1.171a.194.194,0,1,1,.388,0v1.171a.194.194,0,0,1-.194.194m-23.743-.031a.194.194,0,0,1-.194-.194v-1.171a.194.194,0,1,1,.388,0v1.171a.194.194,0,0,1-.194.194m23.743-2.311a.194.194,0,0,1-.194-.194v-1.171a.194.194,0,1,1,.388,0v1.171a.194.194,0,0,1-.194.194m-23.743-.031a.194.194,0,0,1-.194-.194V768.74c0-.012,0-.025,0-.037a.19.19,0,0,1,.2-.186.194.194,0,0,1,.186.2v1.163a.194.194,0,0,1-.194.194m23.012-1.908h-1.171a.194.194,0,0,1,0-.388h1.18a.194.194,0,0,1-.009.388m-2.342,0h-1.171a.194.194,0,0,1,0-.388h1.171a.194.194,0,0,1,0,.388m-2.342,0H1020.8a.194.194,0,0,1,0-.388h1.171a.194.194,0,0,1,0,.388m-2.342,0h-1.171a.194.194,0,0,1,0-.388h1.171a.194.194,0,0,1,0,.388m-2.342,0h-1.171a.194.194,0,0,1,0-.388h1.171a.194.194,0,1,1,0,.388m-2.342,0h-1.171a.194.194,0,0,1,0-.388h1.171a.194.194,0,0,1,0,.388m-2.342,0h-1.171a.194.194,0,0,1,0-.388h1.171a.194.194,0,0,1,0,.388m-2.342,0h-1.171a.194.194,0,0,1,0-.388h1.171a.194.194,0,0,1,0,.388m-2.342,0h-1.171a.194.194,0,0,1,0-.388h1.171a.194.194,0,0,1,0,.388m-2.342,0h-1.167a.2.2,0,0,1-.2-.194.192.192,0,0,1,.191-.194h1.171a.194.194,0,0,1,0,.388" transform="translate(-811.258 -620.725)" fill="#151f2c"/>
      <path id="Trazado_116964" data-name="Trazado 116964" d="M608.009,367.788h-1.3a.219.219,0,0,1,0-.438H608a.222.222,0,0,1,.223.219.216.216,0,0,1-.215.219m-2.6,0h-1.3a.219.219,0,1,1,0-.438h1.3a.219.219,0,0,1,0,.438m-2.592,0h-1.3a.219.219,0,1,1,0-.438h1.3a.219.219,0,0,1,0,.438m-2.592,0h-1.3a.219.219,0,1,1,0-.438h1.3a.219.219,0,1,1,0,.438m-2.592,0h-1.3a.219.219,0,1,1,0-.438h1.3a.219.219,0,0,1,0,.438m-2.592,0h-1.3a.219.219,0,0,1,0-.438h1.3a.219.219,0,1,1,0,.438m-2.592,0h-1.3a.219.219,0,1,1,0-.438h1.3a.219.219,0,1,1,0,.438m-2.568-.139a.218.218,0,0,1-.108-.029,1.3,1.3,0,0,1-.657-1.128v-.159a.219.219,0,0,1,.438,0v.159a.859.859,0,0,0,.435.747.219.219,0,0,1-.108.409m19.126-.558a.219.219,0,0,1-.2-.3.853.853,0,0,0,.055-.3v-.908a.219.219,0,0,1,.438,0v.908a1.294,1.294,0,0,1-.083.456.219.219,0,0,1-.2.142m-19.672-1.834a.219.219,0,0,1-.219-.219v-1.3a.219.219,0,0,1,.438,0v1.3a.219.219,0,0,1-.219.219m19.741-.749a.219.219,0,0,1-.219-.219v-1.3a.219.219,0,1,1,.438,0v1.3a.219.219,0,0,1-.219.219m-19.741-1.842a.219.219,0,0,1-.219-.219v-1.3a.219.219,0,0,1,.438,0v1.3a.219.219,0,0,1-.219.219m19.741-.749a.219.219,0,0,1-.219-.219v-1.3a.219.219,0,0,1,.438,0v1.3a.219.219,0,0,1-.219.219m-19.741-1.842a.219.219,0,0,1-.219-.219v-1.3a.219.219,0,0,1,.438,0v1.3a.219.219,0,0,1-.219.219m19.741-.749a.219.219,0,0,1-.219-.219v-1.3a.219.219,0,0,1,.438,0v1.3a.219.219,0,0,1-.219.219m-19.741-1.842a.219.219,0,0,1-.219-.219v-1.3a.219.219,0,1,1,.438,0v1.3a.219.219,0,0,1-.219.219m19.741-.749a.219.219,0,0,1-.219-.219v-1.3a.219.219,0,1,1,.438,0v1.3a.219.219,0,0,1-.219.219m-19.741-1.842a.219.219,0,0,1-.219-.219v-1.3a.219.219,0,0,1,.438,0v1.3a.219.219,0,0,1-.219.219m19.741-.749a.219.219,0,0,1-.219-.219v-1.3a.219.219,0,0,1,.438,0v1.3a.219.219,0,0,1-.219.219M589.337,352.3a.219.219,0,0,1-.219-.219v-.9a1.294,1.294,0,0,1,.084-.461.219.219,0,0,1,.409.156.851.851,0,0,0-.056.305v.9a.219.219,0,0,1-.219.219m19.741-.749a.219.219,0,0,1-.219-.219v-.155a.86.86,0,0,0-.438-.748.219.219,0,0,1,.215-.382,1.3,1.3,0,0,1,.661,1.13v.155a.219.219,0,0,1-.219.219m-1.822-1.231h-1.3a.219.219,0,1,1,0-.438h1.3a.219.219,0,1,1,0,.438m-2.592,0h-1.3a.219.219,0,0,1,0-.438h1.3a.219.219,0,0,1,0,.438m-2.592,0h-1.3a.219.219,0,1,1,0-.438h1.3a.219.219,0,1,1,0,.438m-2.592,0h-1.3a.219.219,0,1,1,0-.438h1.3a.219.219,0,1,1,0,.438m-2.592,0h-1.3a.219.219,0,0,1,0-.438h1.3a.219.219,0,1,1,0,.438m-2.592,0H593a.219.219,0,1,1,0-.438h1.3a.219.219,0,1,1,0,.438m-2.592,0h-1.292a.221.221,0,0,1-.221-.219.217.217,0,0,1,.217-.219h1.3a.219.219,0,1,1,0,.438" transform="translate(-476.283 -282.866)" fill="#151f2c"/>
      <path id="Trazado_116965" data-name="Trazado 116965" d="M1026.631,831.962h-1.18a.194.194,0,0,1,0-.388h1.171a.2.2,0,0,1,.2.194.19.19,0,0,1-.19.194m-2.351,0h-1.171a.194.194,0,1,1,0-.388h1.171a.194.194,0,1,1,0,.388m-2.342,0h-1.171a.194.194,0,1,1,0-.388h1.171a.194.194,0,1,1,0,.388m-2.342,0h-1.171a.194.194,0,1,1,0-.388h1.171a.194.194,0,0,1,0,.388m-2.342,0h-1.171a.194.194,0,1,1,0-.388h1.171a.194.194,0,1,1,0,.388m-2.342,0h-1.171a.194.194,0,1,1,0-.388h1.171a.194.194,0,1,1,0,.388m-2.342,0H1011.4a.194.194,0,0,1,0-.388h1.171a.194.194,0,1,1,0,.388m-2.342,0h-1.171a.194.194,0,1,1,0-.388h1.171a.194.194,0,1,1,0,.388m-2.342,0h-1.171a.194.194,0,0,1,0-.388h1.171a.194.194,0,1,1,0,.388m-2.342,0h-1.181a.194.194,0,0,1-.184-.2.191.191,0,0,1,.2-.184h1.161a.194.194,0,0,1,0,.388m21.845-.742h-.006a.194.194,0,0,1-.187-.2v-1.165a.194.194,0,1,1,.388,0v1.177a.194.194,0,0,1-.194.188m-23.743-.031a.194.194,0,0,1-.194-.194v-1.171a.194.194,0,1,1,.388,0v1.171a.194.194,0,0,1-.194.194m23.743-2.311a.194.194,0,0,1-.194-.194v-1.171a.194.194,0,1,1,.388,0v1.171a.194.194,0,0,1-.194.194m-23.743-.031a.194.194,0,0,1-.194-.194v-1.171a.194.194,0,1,1,.388,0v1.171a.194.194,0,0,1-.194.194m23.743-2.311a.194.194,0,0,1-.194-.194v-1.171a.194.194,0,1,1,.388,0v1.171a.194.194,0,0,1-.194.194m-23.743-.031a.194.194,0,0,1-.194-.194v-1.142c0-.013,0-.025,0-.037a.191.191,0,0,1,.2-.186.194.194,0,0,1,.186.2v1.163a.194.194,0,0,1-.194.194m23.012-1.908h-1.171a.194.194,0,0,1,0-.388h1.18a.194.194,0,0,1-.009.387m-2.342,0h-1.171a.194.194,0,1,1,0-.388h1.171a.194.194,0,0,1,0,.388m-2.342,0H1020.8a.194.194,0,0,1,0-.388h1.171a.194.194,0,0,1,0,.388m-2.342,0h-1.171a.194.194,0,0,1,0-.388h1.171a.194.194,0,1,1,0,.388m-2.342,0h-1.171a.194.194,0,1,1,0-.388h1.171a.194.194,0,1,1,0,.388m-2.342,0h-1.171a.194.194,0,1,1,0-.388h1.171a.194.194,0,1,1,0,.388m-2.342,0h-1.171a.194.194,0,1,1,0-.388h1.171a.194.194,0,0,1,0,.388m-2.342,0h-1.171a.194.194,0,0,1,0-.388h1.171a.194.194,0,0,1,0,.388m-2.342,0h-1.171a.194.194,0,1,1,0-.388h1.171a.194.194,0,0,1,0,.388m-2.342,0h-1.167a.2.2,0,0,1-.2-.194.192.192,0,0,1,.191-.194h1.171a.194.194,0,0,1,0,.388" transform="translate(-811.258 -666.346)" fill="#151f2c"/>
      <path id="Trazado_116966" data-name="Trazado 116966" d="M481.831,696.767h-1.169a.194.194,0,1,1,0-.388h1.161a.2.2,0,0,1,.2.194.19.19,0,0,1-.19.194m-2.33,0H478.34a.194.194,0,1,1,0-.388H479.5a.194.194,0,1,1,0,.388m-2.322,0h-1.161a.194.194,0,1,1,0-.388h1.161a.194.194,0,1,1,0,.388m-2.322,0H473.7a.194.194,0,1,1,0-.388h1.161a.194.194,0,1,1,0,.388m-2.322,0h-1.161a.194.194,0,1,1,0-.388h1.161a.194.194,0,1,1,0,.388m-2.322,0h-1.161a.194.194,0,1,1,0-.388h1.161a.194.194,0,1,1,0,.388m-2.322,0h-1.161a.194.194,0,1,1,0-.388h1.161a.194.194,0,1,1,0,.388m-2.322,0h-1.161a.194.194,0,1,1,0-.388h1.161a.194.194,0,1,1,0,.388m-2.322,0h-1.161a.194.194,0,1,1,0-.388h1.161a.194.194,0,1,1,0,.388m-2.322,0h-1.161a.194.194,0,1,1,0-.388h1.161a.194.194,0,1,1,0,.388m-2.322,0h-1.161a.194.194,0,1,1,0-.388H458.6a.194.194,0,1,1,0,.388m-2.322,0h-1.161a.194.194,0,1,1,0-.388h1.161a.194.194,0,1,1,0,.388m-2.322,0H452.8a.194.194,0,1,1,0-.388h1.161a.194.194,0,1,1,0,.388m-2.322,0h-1.161a.194.194,0,1,1,0-.388h1.161a.194.194,0,1,1,0,.388m-2.322,0h-1.161a.194.194,0,1,1,0-.388h1.161a.194.194,0,1,1,0,.388m-2.322,0h-.927a2.177,2.177,0,0,1-.256-.015.194.194,0,0,1,.046-.385,1.824,1.824,0,0,0,.211.012h.927a.194.194,0,1,1,0,.388m35.931-.335a.194.194,0,0,1-.108-.355,1.78,1.78,0,0,0,.655-.8.194.194,0,0,1,.358.149,2.169,2.169,0,0,1-.8.971.192.192,0,0,1-.108.033m-38.139-.137a.193.193,0,0,1-.126-.046,2.166,2.166,0,0,1-.681-1.056.194.194,0,1,1,.373-.107,1.779,1.779,0,0,0,.559.867.194.194,0,0,1-.126.341m39.015-1.889a.194.194,0,0,1-.194-.194v-1.161a.194.194,0,0,1,.388,0v1.161a.194.194,0,0,1-.194.194m-39.711-.226a.194.194,0,0,1-.194-.194v-1.161a.194.194,0,1,1,.388,0v1.161a.194.194,0,0,1-.194.194m39.711-2.1a.194.194,0,0,1-.194-.194V690.73a.194.194,0,0,1,.388,0v1.161a.194.194,0,0,1-.194.194m-39.711-.226a.194.194,0,0,1-.194-.194V690.5a.194.194,0,0,1,.388,0v1.161a.194.194,0,0,1-.194.194m39.711-2.1a.194.194,0,0,1-.194-.194v-1.161a.194.194,0,0,1,.388,0v1.161a.194.194,0,0,1-.194.194m-39.711-.226a.194.194,0,0,1-.194-.194v-1.161a.194.194,0,1,1,.388,0v1.161a.194.194,0,0,1-.194.194m39.711-2.1a.194.194,0,0,1-.194-.194v-1.161a.194.194,0,0,1,.388,0v1.161a.194.194,0,0,1-.194.194m-39.711-.226a.194.194,0,0,1-.194-.194V685.86a.194.194,0,1,1,.388,0v1.161a.194.194,0,0,1-.194.194m39.711-2.1a.194.194,0,0,1-.194-.194v-1.161a.194.194,0,0,1,.388,0v1.161a.194.194,0,0,1-.194.194m-39.711-.226a.194.194,0,0,1-.194-.194v-1.161a.194.194,0,1,1,.388,0V684.7a.194.194,0,0,1-.194.194m39.711-2.1a.194.194,0,0,1-.194-.194v-1.161a.194.194,0,0,1,.388,0V682.6a.194.194,0,0,1-.194.194m-39.711-.226a.194.194,0,0,1-.194-.194v-1.161a.194.194,0,1,1,.388,0v1.161a.194.194,0,0,1-.194.194m39.711-2.1a.194.194,0,0,1-.194-.194V679.12a.194.194,0,0,1,.388,0v1.161a.194.194,0,0,1-.194.194m-39.711-.226a.194.194,0,0,1-.194-.194v-1.161a.194.194,0,1,1,.388,0v1.161a.194.194,0,0,1-.194.194m39.711-2.1a.194.194,0,0,1-.194-.194V676.8a.194.194,0,0,1,.388,0v1.161a.194.194,0,0,1-.194.194m-39.711-.226a.194.194,0,0,1-.194-.194v-1.161a.194.194,0,0,1,.388,0v1.161a.194.194,0,0,1-.194.194m39.711-2.1a.194.194,0,0,1-.194-.194v-1.161a.194.194,0,0,1,.388,0v1.161a.194.194,0,0,1-.194.194m-39.711-.226a.194.194,0,0,1-.194-.194V674.25a.194.194,0,1,1,.388,0v1.161a.194.194,0,0,1-.194.194m39.711-2.1a.194.194,0,0,1-.194-.194v-1.161a.194.194,0,1,1,.388,0v1.161a.194.194,0,0,1-.194.194m-39.711-.226a.194.194,0,0,1-.194-.194v-1.161a.194.194,0,1,1,.388,0v1.161a.194.194,0,0,1-.194.194m39.711-2.1a.194.194,0,0,1-.194-.194v-1.161a.194.194,0,0,1,.388,0v1.161a.194.194,0,0,1-.194.194m-39.711-.226a.194.194,0,0,1-.194-.194v-1.161a.194.194,0,0,1,.388,0v1.161a.194.194,0,0,1-.194.194m39.634-2.088a.194.194,0,0,1-.186-.14,1.781,1.781,0,0,0-.561-.866.194.194,0,0,1,.251-.3,2.165,2.165,0,0,1,.683,1.054.194.194,0,0,1-.186.248m-39.482-.213a.194.194,0,0,1-.179-.269,2.17,2.17,0,0,1,.8-.97.194.194,0,1,1,.215.322,1.783,1.783,0,0,0-.656.8.194.194,0,0,1-.179.119m37.811-1.2h-.022a1.808,1.808,0,0,0-.207-.012h-.931a.194.194,0,0,1,0-.388h.931a2.206,2.206,0,0,1,.252.014.194.194,0,0,1-.022.386m-2.322-.013h-1.161a.194.194,0,1,1,0-.388h1.161a.194.194,0,0,1,0,.388m-2.322,0h-1.161a.194.194,0,1,1,0-.388h1.161a.194.194,0,0,1,0,.388m-2.322,0h-1.161a.194.194,0,0,1,0-.388h1.161a.194.194,0,1,1,0,.388m-2.322,0H471.6a.194.194,0,0,1,0-.388h1.161a.194.194,0,0,1,0,.388m-2.322,0h-1.161a.194.194,0,1,1,0-.388h1.161a.194.194,0,0,1,0,.388m-2.322,0h-1.161a.194.194,0,0,1,0-.388h1.161a.194.194,0,0,1,0,.388m-2.322,0h-1.161a.194.194,0,1,1,0-.388H465.8a.194.194,0,0,1,0,.388m-2.322,0h-1.161a.194.194,0,0,1,0-.388h1.161a.194.194,0,1,1,0,.388m-2.322,0H460a.194.194,0,0,1,0-.388h1.161a.194.194,0,0,1,0,.388m-2.322,0h-1.161a.194.194,0,1,1,0-.388h1.161a.194.194,0,0,1,0,.388m-2.322,0h-1.161a.194.194,0,0,1,0-.388h1.161a.194.194,0,0,1,0,.388m-2.322,0H453.03a.194.194,0,1,1,0-.388h1.161a.194.194,0,0,1,0,.388m-2.322,0h-1.161a.194.194,0,1,1,0-.388h1.161a.194.194,0,1,1,0,.388m-2.322,0h-1.161a.194.194,0,0,1,0-.388h1.161a.194.194,0,0,1,0,.388m-2.322,0h-1.157a.2.2,0,0,1-.2-.194.192.192,0,0,1,.192-.194h1.161a.194.194,0,0,1,0,.388" transform="translate(-358.875 -539.293)" fill="#151f2c"/>
      <path id="Trazado_116967" data-name="Trazado 116967" d="M495.073,512.612H448.151a1.833,1.833,0,0,1-1.834-1.834V485.122a1.834,1.834,0,0,1,1.834-1.834h46.923a1.834,1.834,0,0,1,1.834,1.834v25.656a1.834,1.834,0,0,1-1.834,1.834" transform="translate(-360.833 -390.723)" fill="#e9e9e9"/>
      <path id="Trazado_116968" data-name="Trazado 116968" d="M548.576,525.606v11.633a.914.914,0,0,0,1.416.764l8.841-5.816a.914.914,0,0,0,0-1.527l-8.841-5.817a.914.914,0,0,0-1.416.764" transform="translate(-443.506 -424.196)" fill="#43a1f6"/>
      <path id="Trazado_116969" data-name="Trazado 116969" d="M460.046,618.745a.908.908,0,1,1,.908.908.908.908,0,0,1-.908-.908" transform="translate(-371.932 -499.501)" fill="#aec3ff"/>
      <path id="Trazado_116970" data-name="Trazado 116970" d="M506.1,621.79H465.031a.245.245,0,0,1,0-.489H506.1a.245.245,0,0,1,0,.489" transform="translate(-375.765 -502.302)" fill="#aec3ff"/>
      <rect id="Rectángulo_36268" data-name="Rectángulo 36268" width="26.173" height="39.07" transform="translate(132.795 127.956)" fill="#e9e9e9"/>
      <path id="Trazado_116971" data-name="Trazado 116971" d="M773.259,703.82H772.9v-1.61a1.048,1.048,0,0,1,1.047-1.047h4.428a.69.69,0,0,0,.666-.514l.7-2.662a.689.689,0,0,0-.667-.864H773.3v-.358h5.778a1.047,1.047,0,0,1,1.013,1.314l-.7,2.662a1.048,1.048,0,0,1-1.013.781h-4.428a.69.69,0,0,0-.689.689Z" transform="translate(-624.865 -563.311)" fill="#384152"/>
      <path id="Trazado_116972" data-name="Trazado 116972" d="M759.475,692.835h-7.609a1.163,1.163,0,0,1-1.163-1.163v-.7a1.163,1.163,0,0,1,1.163-1.163h7.609a1.163,1.163,0,0,1,1.163,1.163v.7a1.163,1.163,0,0,1-1.163,1.163" transform="translate(-606.919 -557.693)" fill="#43a1f6"/>
      <path id="Trazado_116973" data-name="Trazado 116973" d="M769.679,735h0a.984.984,0,0,1-.984-.984v-5.967a.984.984,0,1,1,1.969,0v5.967a.984.984,0,0,1-.984.984" transform="translate(-621.465 -587.806)" fill="#384152"/>
      <path id="Trazado_116974" data-name="Trazado 116974" d="M963.023,835.69a13.562,13.562,0,0,1,.619,2.563,9.3,9.3,0,0,1-.787,2.525c-.3.417-.454-1.7-.694-2.018s-.049.8-.219.9-.523-.821-.675-1.147.371-1.528.373-2.365,1.383-.458,1.383-.458" transform="translate(-777.131 -675.56)" fill="#ee805f"/>
      <path id="Trazado_116975" data-name="Trazado 116975" d="M887.336,735.963a2.962,2.962,0,0,1,4.463-2.788l.125.078c3.072,1.977,9.7,11.2,10.156,12.127s1.8,8.277,1.8,8.277-1.664.609-2.442-.023c0,0-2.7-6.973-3.1-7.322s-10.793-6.18-10.881-8.367c-.024-.578-.07-1.273-.126-1.983" transform="translate(-717.375 -592.403)" fill="#151f2c"/>
      <path id="Trazado_116976" data-name="Trazado 116976" d="M965.277,1029.214s1.238,1.13,1,1.933-1.359,1.339-1.51,2.32-.755,1.517-1.3,1.517h-2.592s-.4-.691.566-.9,1.331-1.362,1.271-2.432a18.861,18.861,0,0,1,.091-2.5l2.054-.476Z" transform="translate(-776.767 -831.654)" fill="#2a4a7c"/>
      <path id="Trazado_116977" data-name="Trazado 116977" d="M874.155,1042.536s.222,2.572-.321,2.84l-6.959-.014s0-.8,1.118-.982,3.081-.833,3.414-2.29,2.749.446,2.749.446" transform="translate(-700.84 -842.052)" fill="#2a4a7c"/>
      <path id="Trazado_116978" data-name="Trazado 116978" d="M874.211,854.392s.367,4.509.8,9.929c.586,7.363,1.291,16.406,1.361,18.12.121,2.975.6,7.734.6,7.734a3.842,3.842,0,0,0,3.444.654,76.788,76.788,0,0,0,2.631-13.981l.027-.355c.544-7.317,1.389-22.725,1.389-22.725Z" transform="translate(-706.771 -690.243)" fill="#43a1f6"/>
      <path id="Trazado_116979" data-name="Trazado 116979" d="M874.211,854.392s.367,4.509.8,9.929l8.04,12.526.027-.355c.544-7.317,1.389-22.725,1.389-22.725Z" transform="translate(-706.771 -690.243)" fill="#2b6eb2"/>
      <path id="Trazado_116980" data-name="Trazado 116980" d="M882.962,847.395s6.616,16.33,10.965,24,5.709,9.815,5.709,9.815,2.492-.981,2.719-1.651c0,0-1.663-14.815-4.577-18.427-1.646-2.041-3.579-8.165-3.67-10.306s-.589-6.38-.589-6.38Z" transform="translate(-713.846 -682.711)" fill="#43a1f6"/>
      <path id="Trazado_116981" data-name="Trazado 116981" d="M883.078,709.231s-4.432,2.248-7.028,1.5a6.089,6.089,0,0,1,1.719-1.432c-.1-.516-.178-.964-.225-1.345a12.463,12.463,0,0,1-.137-1.376l1.7-1.392,1.612-1.332a6.6,6.6,0,0,0,2.36,5.378" transform="translate(-708.258 -569.043)" fill="#ee805f"/>
      <path id="Trazado_116982" data-name="Trazado 116982" d="M878.045,748.918a18.257,18.257,0,0,1-5.466,2.355,43.314,43.314,0,0,1-6.175.537.4.4,0,0,1-.28-.071c-.076-.039-.5-2.891-.925-6.492-.019-.145-.038-.291-.047-.438l-.006-.049c-.165-1.408-.31-2.886-.436-4.368-.1-1.153-.187-2.294-.245-3.365-.074-1.34-.1-2.572-.074-3.584.013-.463.04-.879.082-1.241a8.826,8.826,0,0,1,2.2-4.725l.784-.892a4.3,4.3,0,0,0,2.712-.692c.957-.63,1.99-1.308,2.185-1.195,1.467.8,2.661,2.882,3.514,5.629a31.369,31.369,0,0,1,1.1,5.275c.077.589.143,1.194.193,1.8.01.112.018.223.027.333.115,1.647.3,3.19.512,4.568.28,1.859.6,3.415.825,4.512.113.558.2.99.251,1.3.046.27-.494.656-.735.806" transform="translate(-698.822 -585.886)" fill="#384152"/>
      <path id="Trazado_116983" data-name="Trazado 116983" d="M886.5,710.874a5.933,5.933,0,0,1-3.232,2.7,12.466,12.466,0,0,1-.137-1.376l1.7-1.392Z" transform="translate(-713.986 -574.666)" fill="#de6b4d"/>
      <path id="Trazado_116984" data-name="Trazado 116984" d="M875.232,688.345s4.283.614,4.632-2.019S881,682,878.28,681.5s-3.385.434-3.719,1.284-.435,5.336.671,5.564" transform="translate(-706.871 -550.854)" fill="#ee805f"/>
      <path id="Trazado_116985" data-name="Trazado 116985" d="M875.211,674.311c.038-.045.127-.083.325-.1a.807.807,0,0,0-.374-.1,1,1,0,0,0-.682-.872.6.6,0,0,1,.3.425c-.563-.555-1.752-.944-5.019-.621-4.305.426-2.829,3.159-2.265,3.477s1.952-.612,2.994-.55,1.27,1.561,1.626,1.76.211-.163.684-.388.534.565.407,1.082.542,1.183.542,1.183l.649-.727a7.428,7.428,0,0,0,.9-4.4l-.084-.171" transform="translate(-700.77 -544.042)" fill="#151f2c"/>
      <path id="Trazado_116986" data-name="Trazado 116986" d="M871.9,770.637a19.379,19.379,0,0,1-7.44,3.35c-.074-1.34-.1-2.571-.074-3.585Z" transform="translate(-698.821 -622.845)" fill="#151f2c"/>
      <path id="Trazado_116987" data-name="Trazado 116987" d="M771.184,743.185c-.057-.061-.793-2.523-2.066-2.343-.831.117-2.189.6-1.828,1.693.142.43,2.673,1.913,2.673,1.913Z" transform="translate(-620.28 -598.939)" fill="#ee805f"/>
      <path id="Trazado_116988" data-name="Trazado 116988" d="M804.665,738.732a2.962,2.962,0,0,1-.31,5.253l-.136.057c-3.39,1.36-14.75,1.423-15.768,1.26s-7.793-3.322-7.793-3.322.467-1.709,1.432-1.978c0,0,7.248,1.837,7.763,1.713s11.288-5.222,13.122-4.028c.485.315,1.078.68,1.689,1.045" transform="translate(-631.136 -596.25)" fill="#384152"/>
      <path id="Trazado_116989" data-name="Trazado 116989" d="M1263.9,316.115h-9.043a.691.691,0,1,1,0-1.382h9.043a.691.691,0,1,1,0,1.382" transform="translate(-1013.954 -254.452)" fill="#ebf3fa"/>
      <path id="Trazado_116990" data-name="Trazado 116990" d="M1263.9,330.212h-9.043a.691.691,0,1,1,0-1.382h9.043a.691.691,0,1,1,0,1.382" transform="translate(-1013.954 -265.849)" fill="#ebf3fa"/>
      <path id="Trazado_116991" data-name="Trazado 116991" d="M1263.9,344.673h-9.043a.691.691,0,1,1,0-1.382h9.043a.691.691,0,1,1,0,1.382" transform="translate(-1013.954 -277.54)" fill="#ebf3fa"/>
      <path id="Trazado_116992" data-name="Trazado 116992" d="M1025.367,683.188h-21.528a.916.916,0,1,1,0-1.833h21.528a.916.916,0,1,1,0,1.833" transform="translate(-810.83 -550.854)" fill="#ebf3fa"/>
      <path id="Trazado_116993" data-name="Trazado 116993" d="M475.945,354.8H454.417a.916.916,0,1,1,0-1.833h21.528a.916.916,0,0,1,0,1.833" transform="translate(-366.641 -285.363)" fill="#ebf3fa"/>
      <path id="Trazado_116994" data-name="Trazado 116994" d="M1025.367,730.652h-21.528a.916.916,0,1,1,0-1.833h21.528a.916.916,0,1,1,0,1.833" transform="translate(-810.83 -589.227)" fill="#ebf3fa"/>
      <path id="Trazado_116995" data-name="Trazado 116995" d="M1007.555,706.921H981.807a.916.916,0,1,1,0-1.833h25.747a.916.916,0,1,1,0,1.833" transform="translate(-793.018 -570.041)" fill="#ebf3fa"/>
      <path id="Trazado_116996" data-name="Trazado 116996" d="M483.1,384.884H470.956a.7.7,0,0,1-.7-.7v-.437a.7.7,0,0,1,.7-.7H483.1a.7.7,0,0,1,.7.7v.437a.7.7,0,0,1-.7.7" transform="translate(-380.188 -309.685)" fill="#ebf3fa"/>
      <path id="Trazado_116997" data-name="Trazado 116997" d="M449.255,383.968a.916.916,0,1,1,.916.917.916.916,0,0,1-.916-.917" transform="translate(-363.208 -309.686)" fill="#ebf3fa"/>
      <path id="Trazado_116998" data-name="Trazado 116998" d="M485.407,403.925H471.013a.758.758,0,0,1-.756-.756v-.32a.759.759,0,0,1,.756-.756h14.394a.758.758,0,0,1,.756.756v.32a.758.758,0,0,1-.756.756" transform="translate(-380.187 -325.079)" fill="#ebf3fa"/>
      <path id="Trazado_116999" data-name="Trazado 116999" d="M449.255,403.009a.916.916,0,1,1,.916.916.916.916,0,0,1-.916-.916" transform="translate(-363.208 -325.08)" fill="#ebf3fa"/>
      <path id="Trazado_117000" data-name="Trazado 117000" d="M483.1,424.594H470.956a.7.7,0,0,1-.7-.7v-.437a.7.7,0,0,1,.7-.7H483.1a.7.7,0,0,1,.7.7v.437a.7.7,0,0,1-.7.7" transform="translate(-380.188 -341.789)" fill="#ebf3fa"/>
      <path id="Trazado_117001" data-name="Trazado 117001" d="M449.255,423.677a.916.916,0,1,1,.916.916.917.917,0,0,1-.916-.916" transform="translate(-363.208 -341.789)" fill="#ebf3fa"/>
      <path id="Trazado_117002" data-name="Trazado 117002" d="M637.159,376.177a3.28,3.28,0,0,1-.484.03,3.233,3.233,0,0,1-2.222-5.545h0a3.233,3.233,0,1,1,2.706,5.515m-2.334-5.134a2.7,2.7,0,1,0,3.819.044,2.7,2.7,0,0,0-3.819-.044" transform="translate(-512.149 -298.926)" fill="#151f2c"/>
      <rect id="Rectángulo_36269" data-name="Rectángulo 36269" width="4.412" height="0.532" transform="translate(119.1 79.015) rotate(-44.331)" fill="#151f2c"/>
      <path id="Trazado_117003" data-name="Trazado 117003" d="M616.5,408.059h0a.475.475,0,0,1,.008-.672l1.858-1.816a.475.475,0,1,1,.665.68l-1.859,1.816a.475.475,0,0,1-.672-.008" transform="translate(-498.31 -327.782)" fill="#151f2c"/>
      <path id="Trazado_117004" data-name="Trazado 117004" d="M1330.547,737.014h0a1.062,1.062,0,0,1-.967-.666l-24.84-75.632a.5.5,0,0,1,.527-.674,1.062,1.062,0,0,1,.967.666l24.84,75.632a.5.5,0,0,1-.526.674" transform="translate(-1054.814 -533.623)" fill="#151f2c"/>
      <path id="Trazado_117005" data-name="Trazado 117005" d="M1435.069,736.409h0a1.062,1.062,0,0,1-.967-.666l-24.84-75.632a.5.5,0,0,1,.527-.674,1.061,1.061,0,0,1,.967.666l24.84,75.632a.5.5,0,0,1-.526.674" transform="translate(-1139.317 -533.134)" fill="#151f2c"/>
      <path id="Trazado_117006" data-name="Trazado 117006" d="M1342.759,712.641l-20.1.116a1.006,1.006,0,0,1-.912-.629.471.471,0,0,1,.5-.637l20.1-.116a1.006,1.006,0,0,1,.912.628.471.471,0,0,1-.5.637" transform="translate(-1068.562 -575.125)" fill="#151f2c"/>
      <path id="Trazado_117007" data-name="Trazado 117007" d="M1365.4,781.585l-20.1.116a1.006,1.006,0,0,1-.913-.628.471.471,0,0,1,.5-.637l20.1-.116a1.006,1.006,0,0,1,.913.628.472.472,0,0,1-.5.637" transform="translate(-1086.869 -630.864)" fill="#151f2c"/>
      <path id="Trazado_117008" data-name="Trazado 117008" d="M1387.211,847.988l-20.1.116a1.006,1.006,0,0,1-.912-.629.471.471,0,0,1,.5-.637l20.1-.116a1.006,1.006,0,0,1,.913.628.471.471,0,0,1-.5.637" transform="translate(-1104.5 -684.548)" fill="#151f2c"/>
      <path id="Trazado_117009" data-name="Trazado 117009" d="M1411.763,922.742l-20.1.116a1,1,0,0,1-.912-.629.471.471,0,0,1,.5-.637l20.1-.116a1,1,0,0,1,.912.628.471.471,0,0,1-.5.637" transform="translate(-1124.35 -744.985)" fill="#151f2c"/>
      <path id="Trazado_117010" data-name="Trazado 117010" d="M1437.46,1000.984l-20.1.116a1.006,1.006,0,0,1-.912-.629.471.471,0,0,1,.5-.637l20.1-.116a1.006,1.006,0,0,1,.913.629.471.471,0,0,1-.5.637" transform="translate(-1145.125 -808.241)" fill="#151f2c"/>
      <path id="Trazado_117011" data-name="Trazado 117011" d="M1297.523,473.251h0a.293.293,0,0,1-.342-.231l-.322-1.662a.292.292,0,1,1,.573-.111l.322,1.662a.293.293,0,0,1-.231.342" transform="translate(-1048.464 -380.798)" fill="#151f2c"/>
      <rect id="Rectángulo_36270" data-name="Rectángulo 36270" width="0.201" height="2.447" transform="matrix(0.982, -0.19, 0.19, 0.982, 247.985, 87.435)" fill="#151f2c"/>
      <path id="Trazado_117012" data-name="Trazado 117012" d="M1284.583,372.021a7.725,7.725,0,0,0-.591-2.287,3.115,3.115,0,0,0-2.012-.946c-.3.287.877,1.3.922,1.678s-.6.115-.287.845a5.706,5.706,0,0,0,1.118,1.416Z" transform="translate(-1036.4 -298.143)" fill="#ee805f"/>
      <path id="Trazado_117013" data-name="Trazado 117013" d="M1289.448,382.962c.553-.434.67-.425.67-.425s5.112,4.428,5.609,4.823,8.175,2.621,8.175,2.621l1.22,6.241s-10.389-5.018-11.63-6.042c-2.052-1.692-4.64-6.428-4.64-6.428a1.959,1.959,0,0,1,.6-.79" transform="translate(-1041.995 -309.269)" fill="#2b6eb2"/>
      <path id="Trazado_117014" data-name="Trazado 117014" d="M1342.137,694.135a7.761,7.761,0,0,1-.5,2.652l-5.7.033a.891.891,0,0,1,.852-.866,3.822,3.822,0,0,0,2.767-2.184c.635-1.384,2.577.365,2.577.365" transform="translate(-1080.065 -560.46)" fill="#151f2c"/>
      <path id="Trazado_117015" data-name="Trazado 117015" d="M1398.367,692.664s.4,2.834-.142,2.883c-.072.007-2.3.042-3.259.058-1.133.019-2.994-.021-2.994-.021a.3.3,0,0,1-.268-.446,1.194,1.194,0,0,1,.856-.549,4.618,4.618,0,0,0,3.226-2.246c.61-1.4,2.582.32,2.582.32" transform="translate(-1125.113 -559.296)" fill="#151f2c"/>
      <path id="Trazado_117016" data-name="Trazado 117016" d="M1352.82,521.777a112.423,112.423,0,0,0,6.125,15.172c4.541,9.627,4.737,14.267,4.737,14.267a3.992,3.992,0,0,0,1.6.146,4.3,4.3,0,0,0,1.683-.546s-.294-11.459-2.439-16.318-2.582-18.154-2.582-18.154Z" transform="translate(-1093.711 -417.449)" fill="#151f2c"/>
      <path id="Trazado_117017" data-name="Trazado 117017" d="M1339.528,519.8a138.255,138.255,0,0,0,1.359,19.125c1.485,10.541.791,15.443.791,15.443a2.961,2.961,0,0,0,1.6.282,3.6,3.6,0,0,0,2.144-.591s2.126-10.544,1.516-15.82,2.911-18.1,2.911-18.1Z" transform="translate(-1082.962 -420.242)" fill="#384152"/>
      <path id="Trazado_117018" data-name="Trazado 117018" d="M1358.871,397l-1.678,1.243-2.425-.51c.033-.221.193-1.138.339-1.968l.026-.146c.125-.706.233-1.313.233-1.313l2.265-1.129.844-.421c0,.015-.066.784-.074.9a7.252,7.252,0,0,0,.47,3.348" transform="translate(-1095.286 -317.529)" fill="#ee805f"/>
      <path id="Trazado_117019" data-name="Trazado 117019" d="M1350.043,433.02c-.548,2.509-12.29,1.408-12.137-.124.006-.051.036-.76.079-1.716.089-2.067.225-5.3.242-5.549,0,0,0-.009,0-.013.211-2.133.414-4.219.427-5.581a19.367,19.367,0,0,1,.391-3.487c.2-1.012.445-1.931.658-2.648a2.926,2.926,0,0,1,1.716-1.88,2.535,2.535,0,0,1,.284-.1,12.97,12.97,0,0,1,3.812-.745c1.4.413,2.447,2.884,3.185,6.033,1.382,5.9,1.7,14.174,1.342,15.809" transform="translate(-1081.652 -332.402)" fill="#43a1f6"/>
      <path id="Trazado_117020" data-name="Trazado 117020" d="M1359.663,395.459c-.5.952-2.351,1.775-3.124,2.077.009-.049.018-.1.026-.146.125-.707.233-1.313.233-1.313l2.265-1.129c.5-.008.806.119.6.51" transform="translate(-1096.717 -319.303)" fill="#de6b4d"/>
      <path id="Trazado_117021" data-name="Trazado 117021" d="M1349.987,371.765s4.086,1.274,4.841-1.282,1.79-4.114-.787-5.036-3.374-.1-3.833.7-1.264,5.225-.22,5.623" transform="translate(-1091.007 -295.124)" fill="#ee805f"/>
      <path id="Trazado_117022" data-name="Trazado 117022" d="M1352.51,360s.261,2.975.876,2.846,1.174-.225,1.083.672-.943,1.933.953,2.091,4.622-4.732,4.1-5.658c-1.5-2.671-9.186-3.211-7.013.048" transform="translate(-1093.15 -289.231)" fill="#151f2c"/>
      <path id="Trazado_117023" data-name="Trazado 117023" d="M1338.323,474.747c.089-2.067.225-5.3.242-5.549,0,0,0-.009,0-.013l6.937-4.147s.268,9.682-7.18,9.71" transform="translate(-1081.99 -375.968)" fill="#2b6eb2"/>
      <path id="Trazado_117024" data-name="Trazado 117024" d="M1294.967,465.5a18.349,18.349,0,0,0-1.677-1.037,3.524,3.524,0,0,0-1.185-.1c-.041.069-.161.28-.008.352s.344.046.287.1-.633-.224-.766.07-.25,1.3.427,1.606a7.75,7.75,0,0,0,2.465.065c1.021.3.458-1.048.458-1.048" transform="translate(-1044.148 -375.4)" fill="#ee805f"/>
      <path id="Trazado_117025" data-name="Trazado 117025" d="M1307.594,432.8s6.88,1.17,7.49.873c.973-.474-.378-7.455-.378-7.455a2.008,2.008,0,0,1,1.79-1.955,4.446,4.446,0,0,1,3.155.879,3.627,3.627,0,0,1,1.229,2.659c-.4,3.1-1.02,9.4-3.093,10.371-2.674,1.247-10.413-3.457-10.413-3.457a1.354,1.354,0,0,1-.221-.9,2.1,2.1,0,0,1,.441-1.014" transform="translate(-1056.788 -342.962)" fill="#43a1f6"/>
      <path id="Trazado_117026" data-name="Trazado 117026" d="M1283.105,376.713s-.44-.875-.511-1.04.1-.129.271-.037.4.6.662.538c.208-.049-.421.538-.421.538" transform="translate(-1036.922 -303.627)" fill="#ee805f"/>
    </g>
  </g>
</svg>
